<svg width="13" height="10" viewBox="0 0 13 10" fill="none" xmlns="http://www.w3.org/2000/svg">
<path d="M9.25879 4.17048C8.97546 2.73298 7.71296 1.65381 6.19629 1.65381C4.99212 1.65381 3.94629 2.33714 3.42546 3.33714C2.17129 3.47048 1.19629 4.53298 1.19629 5.82048C1.19629 7.19964 2.31712 8.32048 3.69629 8.32048H9.11296C10.263 8.32048 11.1963 7.38714 11.1963 6.23714C11.1963 5.13714 10.3421 4.24548 9.25879 4.17048Z" fill="black"/>
<path fill-rule="evenodd" clip-rule="evenodd" d="M10.0486 3.3096C11.2912 3.7028 12.1963 4.8569 12.1963 6.23714C12.1963 7.93943 10.8152 9.32048 9.11296 9.32048H3.69629C1.76484 9.32048 0.196289 7.75193 0.196289 5.82048C0.196289 4.19865 1.30062 2.83204 2.80224 2.43759C3.54493 1.36194 4.78746 0.653809 6.19629 0.653809C7.9572 0.653809 9.45711 1.75531 10.0486 3.3096ZM3.42546 3.33714C3.94629 2.33714 4.99212 1.65381 6.19629 1.65381C7.71296 1.65381 8.97546 2.73298 9.25879 4.17048C10.3421 4.24548 11.1963 5.13714 11.1963 6.23714C11.1963 7.38714 10.263 8.32048 9.11296 8.32048H3.69629C2.31712 8.32048 1.19629 7.19964 1.19629 5.82048C1.19629 4.53298 2.17129 3.47048 3.42546 3.33714Z" fill="white"/>
</svg>
