<svg width="20" height="20" viewBox="0 0 20 20" fill="none" xmlns="http://www.w3.org/2000/svg">
<path d="M15.5254 10.9633C15.1762 9.19176 13.6204 7.86182 11.7513 7.86182C10.2673 7.86182 8.9784 8.70394 8.33654 9.93632C6.79093 10.1006 5.58936 11.41 5.58936 12.9967C5.58936 14.6964 6.97065 16.0777 8.67031 16.0777H15.3457C16.7629 16.0777 17.9132 14.9275 17.9132 13.5102C17.9132 12.1546 16.8605 11.0557 15.5254 10.9633ZM10.7243 14.5372L8.92705 12.74L9.65108 12.016L10.7243 13.084L13.3842 10.4293L14.1082 11.1533L10.7243 14.5372Z" fill="currentColor"/>
<path d="M4.40496 13.6381C3.72318 12.595 3.3335 11.3466 3.3335 10.0001C3.3335 7.30845 4.9042 4.99178 7.2042 3.94178C7.71253 3.70012 8.3042 4.05845 8.3042 4.62512V4.78345C8.3042 5.09178 8.11253 5.35012 7.8292 5.48345C6.13753 6.28345 4.97087 8.00845 4.97087 10.0001C4.97087 10.2376 4.98757 10.4709 5.01978 10.6991C4.60008 11.3644 4.35742 12.1522 4.35742 12.9962C4.35742 13.2143 4.37365 13.4286 4.40496 13.6381Z" fill="currentColor"/>
<path d="M4.893 15.078L4.01253 15.9585C3.7542 16.2168 3.93753 16.6668 4.31253 16.6668H6.40588C5.77535 16.2766 5.25259 15.7285 4.893 15.078Z" fill="currentColor"/>
<path d="M16.6634 9.95796C16.6516 8.13433 15.9284 6.48638 14.73 5.29626L15.9883 4.03792C16.2466 3.77959 16.0633 3.32959 15.6883 3.32959H12.1133C11.88 3.32959 11.6966 3.51292 11.6966 3.74626V6.6292C11.715 6.629 11.7333 6.62891 11.7517 6.62891C12.2494 6.62891 12.7302 6.70031 13.1844 6.83347L13.5633 6.45459C13.8043 6.70007 14.0191 6.96938 14.2043 7.2587C15.2497 7.83618 16.0692 8.77193 16.4993 9.90184C16.5545 9.91934 16.6093 9.93805 16.6634 9.95796Z" fill="currentColor"/>
</svg>
