<svg width="13" height="10" viewBox="0 0 13 10" fill="none" xmlns="http://www.w3.org/2000/svg">
<path d="M9.8667 3.87165C9.58337 2.43415 8.32087 1.35498 6.8042 1.35498C5.60003 1.35498 4.5542 2.03831 4.03337 3.03831C2.7792 3.17165 1.8042 4.23415 1.8042 5.52165C1.8042 6.90081 2.92503 8.02165 4.3042 8.02165H9.72087C10.8709 8.02165 11.8042 7.08831 11.8042 5.93831C11.8042 4.83831 10.95 3.94665 9.8667 3.87165ZM5.97087 6.77165L4.51253 5.31331L5.10003 4.72581L5.97087 5.59248L8.1292 3.43831L8.7167 4.02581L5.97087 6.77165Z" fill="black"/>
<path fill-rule="evenodd" clip-rule="evenodd" d="M4.3042 8.02165C2.92503 8.02165 1.8042 6.90081 1.8042 5.52165C1.8042 4.23415 2.7792 3.17165 4.03337 3.03831C4.5542 2.03831 5.60003 1.35498 6.8042 1.35498C8.27074 1.35498 9.49964 2.364 9.83543 3.73033C9.8469 3.77702 9.85734 3.82414 9.8667 3.87165C9.90772 3.87449 9.94842 3.8785 9.98875 3.88365C11.0135 4.01447 11.8042 4.87997 11.8042 5.93831C11.8042 7.08831 10.8709 8.02165 9.72087 8.02165H4.3042ZM10.6566 3.01077C11.8991 3.40398 12.8042 4.55807 12.8042 5.93831C12.8042 7.6406 11.4231 9.02165 9.72087 9.02165H4.3042C2.37275 9.02165 0.804199 7.4531 0.804199 5.52165C0.804199 3.89982 1.90854 2.53321 3.41015 2.13876C4.15284 1.06312 5.39537 0.35498 6.8042 0.35498C8.56511 0.35498 10.065 1.45648 10.6566 3.01077ZM5.10003 4.72581L4.51253 5.31331L5.97087 6.77165L8.71613 4.02638L8.1292 3.43831L5.97087 5.59248L5.10003 4.72581Z" fill="white"/>
</svg>
