<svg width="20" height="20" viewBox="0 0 20 20" fill="none" xmlns="http://www.w3.org/2000/svg">
<path d="M3.3335 10.0001C3.3335 11.8418 4.06253 13.5001 5.27087 14.7001L4.01253 15.9585C3.7542 16.2168 3.93753 16.6668 4.31253 16.6668H7.88753C8.12087 16.6668 8.3042 16.4835 8.3042 16.2501V12.6751C8.3042 12.3001 7.8542 12.1168 7.59587 12.3835L6.43753 13.5418C5.53753 12.6251 4.97087 11.3835 4.97087 10.0001C4.97087 8.00845 6.13753 6.28345 7.8292 5.48345C8.11253 5.35012 8.3042 5.09178 8.3042 4.78345V4.62512C8.3042 4.05845 7.71253 3.70012 7.2042 3.94178C4.9042 4.99178 3.3335 7.30845 3.3335 10.0001ZM15.6883 3.32959H12.1133C11.88 3.32959 11.6966 3.51292 11.6966 3.74626V7.32126C11.6966 7.69626 12.1466 7.87959 12.405 7.61292L13.5633 6.45459C14.4633 7.37126 14.9969 8.62004 14.9969 10.0034C14.9969 11.995 13.85 13.728 12.1584 14.528C11.875 14.6613 11.6834 14.9197 11.6834 15.228V15.378C11.6834 15.9447 12.275 16.303 12.7834 16.0613C15.0834 15.0197 16.6636 12.695 16.6636 10.0034C16.6636 8.16171 15.9383 6.49626 14.73 5.29626L15.9883 4.03792C16.2466 3.77959 16.0633 3.32959 15.6883 3.32959Z" fill="currentColor"/>
<path d="M3.3335 10.0001C3.3335 11.8418 4.06253 13.5001 5.27087 14.7001L4.01253 15.9585C3.7542 16.2168 3.93753 16.6668 4.31253 16.6668H7.88753C8.12087 16.6668 8.3042 16.4835 8.3042 16.2501V12.6751C8.3042 12.3001 7.8542 12.1168 7.59587 12.3835L6.43753 13.5418C5.53753 12.6251 4.97087 11.3835 4.97087 10.0001C4.97087 8.00845 6.13753 6.28345 7.8292 5.48345C8.11253 5.35012 8.3042 5.09178 8.3042 4.78345V4.62512C8.3042 4.05845 7.71253 3.70012 7.2042 3.94178C4.9042 4.99178 3.3335 7.30845 3.3335 10.0001ZM15.6883 3.32959H12.1133C11.88 3.32959 11.6966 3.51292 11.6966 3.74626V7.32126C11.6966 7.69626 12.1466 7.87959 12.405 7.61292L13.5633 6.45459C14.4633 7.37126 14.9969 8.62004 14.9969 10.0034C14.9969 11.995 13.85 13.728 12.1584 14.528C11.875 14.6613 11.6834 14.9197 11.6834 15.228V15.378C11.6834 15.9447 12.275 16.303 12.7834 16.0613C15.0834 15.0197 16.6636 12.695 16.6636 10.0034C16.6636 8.16171 15.9383 6.49626 14.73 5.29626L15.9883 4.03792C16.2466 3.77959 16.0633 3.32959 15.6883 3.32959Z" fill="currentColor"/>
</svg>
