<svg width="495" height="140" viewBox="0 0 495 140" xmlns="http://www.w3.org/2000/svg">
<rect x="476.049" y="29.8607" width="18.9501" height="78.6717"/>
<path d="M495 0L476.05 0V8.90081L485.812 18.9501H495V0Z"/>
<path d="M361.201 108.533H342.251V29.8609H361.201V37.039C372.686 24.4056 393.933 24.1184 401.398 37.039C418.339 21.5343 457.1 24.1185 457.1 51.9694V108.533H438.15V56.2762C438.15 41.3458 418.051 40.1973 409.438 53.405V108.533H390.488V56.2762C390.488 42.4943 371.25 39.0488 361.201 53.405V108.533Z" />
<path fill-rule="evenodd" clip-rule="evenodd" d="M304.357 29.8608H323.308V108.532H304.357V98.9113C285.119 123.463 238.6 109.394 238.313 69.4836C238.026 29.5735 284.252 16.0789 304.357 38.0413V29.8608ZM257.837 67.902C257.838 103.651 303.777 99.6315 303.777 67.7609C303.777 35.8902 257.836 37.0387 257.837 67.902Z"/>
<path fill-rule="evenodd" clip-rule="evenodd" d="M204.433 29.8608H223.383V101.929C223.383 154.759 140.118 148.155 140.117 108.532H159.067C164.236 129.493 204.433 129.493 204.433 101.067V99.0575C184.908 118.582 140.405 108.82 140.118 68.9096C139.831 28.9995 184.334 16.3663 204.433 38.1875V29.8608ZM159.067 68.0483C159.068 100.493 205.007 99.9189 204.721 68.0483C204.721 37.0389 159.067 35.6034 159.067 68.0483Z"/>
<rect x="102.216" y="29.861" width="18.9501" height="78.6717"/>
<path d="M102.216 0H121.166V8.90081L111.404 18.9501H102.216V0Z"/>
<path fill-rule="evenodd" clip-rule="evenodd" d="M0 108.534V0.00120415H51.1079C87.5725 -0.286044 95.3248 49.7268 61.7314 61.2117L83.2657 95.371V108.534H67.761L39.3359 63.2216H18.9501V108.534H0ZM18.9501 18.9512V44.2715H50.2465C68.0481 44.2715 67.4739 18.9512 50.2465 18.9512H18.9501Z"/>
</svg>
