<svg width="88" height="27" viewBox="0 0 88 27" fill="none" xmlns="http://www.w3.org/2000/svg">
<rect x="83.4966" y="5.67565" width="3.60182" height="14.953" />
<path d="M87.0984 2.47955e-05L83.4966 2.47955e-05V1.69179L85.352 3.60185H87.0984V2.47955e-05Z" />
<path d="M61.6675 20.6287H58.0657V5.67567H61.6675V7.04C63.8504 4.63878 67.8888 4.5842 69.3077 7.04C72.5275 4.09304 79.8949 4.58421 79.8949 9.8778V20.6287H76.2931V10.6964C76.2931 7.85859 72.473 7.6403 70.8358 10.1507V20.6287H67.234V10.6964C67.234 8.07688 63.5776 7.422 61.6675 10.1507V20.6287Z" />
<path fill-rule="evenodd" clip-rule="evenodd" d="M50.8638 5.67565H54.4657V20.6287H50.8638V18.8C47.2071 23.4665 38.3653 20.7924 38.3108 13.2067C38.2563 5.62105 47.0425 3.05614 50.8638 7.2305V5.67565ZM42.0217 12.9061C42.0219 19.7009 50.7534 18.9369 50.7534 12.8793C50.7534 6.82166 42.0216 7.03995 42.0217 12.9061Z" />
<path fill-rule="evenodd" clip-rule="evenodd" d="M31.871 5.67554H35.4728V19.3734C35.4728 29.4149 19.6467 28.1597 19.6466 20.6286H23.2485C24.2309 24.6124 31.871 24.6124 31.871 19.2097V18.8277C28.16 22.5387 19.7013 20.6832 19.6467 13.0975C19.5922 5.51184 28.0509 3.11066 31.871 7.25819V5.67554ZM23.2485 12.9338C23.2486 19.1006 31.9802 18.9914 31.9258 12.9338C31.9258 7.03988 23.2484 6.76703 23.2485 12.9338Z" />
<rect x="12.4424" y="5.67565" width="3.60182" height="14.953" />
<path d="M12.4429 0H16.0447V1.69177L14.1892 3.60182H12.4429V0Z" />
<path d="M0 5.67562V20.6287H3.60182V12.5518C3.60182 11.2967 4.74786 8.51343 7.85853 8.51343H8.84084V5.67562H6.43963C5.45731 5.67562 4.2567 6.11221 3.60182 7.42196V5.67562H0Z" />
</svg>
