<svg width="1562" height="143" viewBox="0 0 1562 143" fill="none" xmlns="http://www.w3.org/2000/svg">
<path d="M33.128 106H52.712V20.608H85.4V2.32H0.44V20.608H33.128V106ZM118.743 108.304C124.359 108.304 129.255 107.368 133.431 105.496C137.607 103.624 141.111 101.128 143.943 98.008V106H161.223V28.24H141.495V67.696C141.495 72.496 140.943 76.384 139.839 79.36C138.783 82.288 137.415 84.52 135.735 86.056C134.055 87.544 132.255 88.552 130.335 89.08C128.415 89.608 126.615 89.872 124.935 89.872C120.759 89.872 117.519 88.936 115.215 87.064C112.959 85.192 111.327 82.864 110.319 80.08C109.311 77.296 108.711 74.536 108.519 71.8C108.327 69.016 108.231 66.736 108.231 64.96V28.24H88.3588V71.872C88.3588 73.168 88.4548 75.232 88.6468 78.064C88.8388 80.896 89.3908 84.04 90.3027 87.496C91.2148 90.904 92.7268 94.192 94.8388 97.36C96.9988 100.528 99.9988 103.144 103.839 105.208C107.679 107.272 112.647 108.304 118.743 108.304ZM217.49 108.16C224.978 108.16 231.866 106.192 238.154 102.256C244.49 98.32 249.122 92.8 252.05 85.696L232.466 80.08C229.49 86.608 224.114 89.872 216.338 89.872C211.01 89.872 206.81 88.384 203.738 85.408C200.714 82.432 198.842 78.16 198.122 72.592H252.698C253.514 63.184 252.554 55 249.818 48.04C247.082 41.08 242.858 35.68 237.146 31.84C231.434 28 224.498 26.08 216.338 26.08C208.658 26.08 201.866 27.832 195.962 31.336C190.058 34.792 185.426 39.664 182.066 45.952C178.706 52.24 177.026 59.632 177.026 68.128C177.026 75.904 178.73 82.816 182.138 88.864C185.594 94.864 190.346 99.592 196.394 103.048C202.49 106.456 209.522 108.16 217.49 108.16ZM217.202 43.072C221.906 43.072 225.506 44.248 228.002 46.6C230.546 48.952 232.178 52.768 232.898 58.048H198.626C200.69 48.064 206.882 43.072 217.202 43.072ZM299.339 108.16C309.515 108.16 317.483 105.88 323.243 101.32C329.003 96.76 331.883 90.496 331.883 82.528C331.883 76.48 330.011 71.704 326.267 68.2C322.571 64.696 316.283 61.792 307.403 59.488C301.355 57.952 296.843 56.704 293.867 55.744C290.939 54.784 288.995 53.848 288.035 52.936C287.123 52.024 286.667 50.896 286.667 49.552C286.667 47.296 287.747 45.568 289.907 44.368C292.115 43.168 295.019 42.688 298.619 42.928C306.251 43.504 310.427 46.768 311.147 52.72L331.163 49.12C330.155 42.064 326.699 36.472 320.795 32.344C314.891 28.168 307.355 26.08 298.187 26.08C288.779 26.08 281.267 28.288 275.651 32.704C270.035 37.12 267.227 43.072 267.227 50.56C267.227 56.512 269.171 61.216 273.059 64.672C276.947 68.08 283.643 71.008 293.147 73.456C298.763 74.944 302.891 76.144 305.531 77.056C308.219 77.968 309.947 78.904 310.715 79.864C311.483 80.776 311.867 82 311.867 83.536C311.867 85.984 310.907 87.904 308.987 89.296C307.067 90.64 304.331 91.312 300.779 91.312C296.459 91.312 292.883 90.28 290.051 88.216C287.267 86.152 285.467 83.296 284.651 79.648L264.635 82.672C265.931 90.784 269.579 97.072 275.579 101.536C281.627 105.952 289.547 108.16 299.339 108.16ZM379.241 108.16C383.513 108.16 387.401 107.584 390.905 106.432C394.409 105.28 397.529 103.648 400.265 101.536V106H417.545V2.32H397.817V30.832C395.417 29.296 392.729 28.12 389.753 27.304C386.825 26.488 383.657 26.08 380.249 26.08C372.809 26.08 366.329 27.856 360.809 31.408C355.289 34.96 350.993 39.832 347.921 46.024C344.897 52.168 343.385 59.2 343.385 67.12C343.385 74.896 344.873 81.88 347.849 88.072C350.873 94.264 355.073 99.16 360.449 102.76C365.825 106.36 372.089 108.16 379.241 108.16ZM382.409 90.736C378.185 90.736 374.729 89.68 372.041 87.568C369.353 85.456 367.361 82.624 366.065 79.072C364.769 75.472 364.121 71.488 364.121 67.12C364.121 62.8 364.793 58.864 366.137 55.312C367.481 51.712 369.545 48.856 372.329 46.744C375.161 44.584 378.761 43.504 383.129 43.504C389.273 43.504 393.665 45.688 396.305 50.056C398.945 54.376 400.265 60.064 400.265 67.12C400.265 74.176 398.921 79.888 396.233 84.256C393.593 88.576 388.985 90.736 382.409 90.736ZM459.305 108.16C465.305 108.16 470.345 107.248 474.425 105.424C478.553 103.552 482.345 100.576 485.801 96.496V106H502.937V58.48C502.937 54.928 502.793 51.712 502.505 48.832C502.217 45.952 501.305 43.072 499.769 40.192C497.033 35.008 493.001 31.36 487.673 29.248C482.345 27.136 476.249 26.08 469.385 26.08C460.025 26.08 452.633 28.096 447.209 32.128C441.785 36.16 438.089 41.392 436.121 47.824L453.833 53.44C455.081 49.888 457.265 47.416 460.385 46.024C463.505 44.632 466.505 43.936 469.385 43.936C473.993 43.936 477.425 44.8 479.681 46.528C481.937 48.208 483.257 50.872 483.641 54.52C476.345 55.576 469.913 56.608 464.345 57.616C458.777 58.576 454.121 59.728 450.377 61.072C444.137 63.376 439.745 66.52 437.201 70.504C434.657 74.44 433.385 79.12 433.385 84.544C433.385 88.864 434.369 92.824 436.337 96.424C438.353 99.976 441.281 102.832 445.121 104.992C449.009 107.104 453.737 108.16 459.305 108.16ZM463.481 92.752C460.121 92.752 457.457 92.008 455.489 90.52C453.521 88.984 452.537 86.896 452.537 84.256C452.537 82.288 453.161 80.608 454.409 79.216C455.657 77.776 457.721 76.48 460.601 75.328C462.809 74.512 465.521 73.768 468.737 73.096C472.001 72.376 476.921 71.464 483.497 70.36C483.449 72.232 483.305 74.296 483.065 76.552C482.825 78.76 482.297 80.704 481.481 82.384C480.953 83.488 479.945 84.856 478.457 86.488C477.017 88.12 475.049 89.584 472.553 90.88C470.105 92.128 467.081 92.752 463.481 92.752ZM527.235 140.56H545.379L589.299 28.24H569.715L549.411 81.16L528.963 28.24H508.659L540.051 105.352L527.235 140.56ZM586.453 125.44C593.077 126.496 597.997 125.248 601.213 121.696C604.429 118.144 606.037 112.912 606.037 106V86.416H586.453V106H596.533C597.061 109.456 596.557 112.264 595.021 114.424C593.533 116.584 591.061 117.52 587.605 117.232L586.453 125.44ZM655.083 106H675.243L681.795 84.4H720.819L727.515 106H747.675L715.995 2.32H686.763L655.083 106ZM687.339 66.112L701.163 20.68L715.203 66.112H687.339ZM789.524 108.304C795.14 108.304 800.036 107.368 804.212 105.496C808.388 103.624 811.892 101.128 814.724 98.008V106H832.004V28.24H812.276V67.696C812.276 72.496 811.724 76.384 810.62 79.36C809.564 82.288 808.196 84.52 806.516 86.056C804.836 87.544 803.036 88.552 801.116 89.08C799.196 89.608 797.396 89.872 795.716 89.872C791.54 89.872 788.3 88.936 785.996 87.064C783.74 85.192 782.108 82.864 781.1 80.08C780.092 77.296 779.492 74.536 779.3 71.8C779.108 69.016 779.012 66.736 779.012 64.96V28.24H759.14V71.872C759.14 73.168 759.236 75.232 759.428 78.064C759.62 80.896 760.172 84.04 761.084 87.496C761.996 90.904 763.508 94.192 765.62 97.36C767.78 100.528 770.78 103.144 774.62 105.208C778.46 107.272 783.428 108.304 789.524 108.304ZM883.663 108.16C887.311 108.16 890.671 107.728 893.743 106.864C896.863 106 899.695 104.776 902.239 103.192V111.04C902.335 113.92 901.591 116.32 900.007 118.24C898.471 120.208 896.407 121.672 893.815 122.632C891.223 123.64 888.463 124.144 885.535 124.144C882.799 124.144 880.255 123.544 877.903 122.344C875.599 121.144 873.823 119.392 872.575 117.088L854.431 125.872C857.407 130.912 861.655 134.968 867.175 138.04C872.695 141.16 878.767 142.72 885.391 142.72C891.103 142.72 896.407 141.952 901.303 140.416C906.199 138.928 910.327 136.648 913.687 133.576C917.095 130.504 919.423 126.592 920.671 121.84C921.103 120.16 921.391 118.456 921.535 116.728C921.727 115.048 921.823 113.248 921.823 111.328V28.24H904.687V32.56C902.047 30.496 899.047 28.912 895.687 27.808C892.375 26.656 888.703 26.08 884.671 26.08C877.231 26.08 870.751 27.856 865.231 31.408C859.711 34.96 855.415 39.832 852.343 46.024C849.319 52.168 847.807 59.2 847.807 67.12C847.807 74.896 849.295 81.88 852.271 88.072C855.295 94.264 859.495 99.16 864.871 102.76C870.247 106.36 876.511 108.16 883.663 108.16ZM886.831 90.736C882.607 90.736 879.151 89.68 876.463 87.568C873.775 85.456 871.783 82.624 870.487 79.072C869.191 75.472 868.543 71.488 868.543 67.12C868.543 62.8 869.215 58.864 870.559 55.312C871.903 51.712 873.967 48.856 876.751 46.744C879.583 44.584 883.183 43.504 887.551 43.504C893.695 43.504 898.087 45.688 900.727 50.056C903.367 54.376 904.687 60.064 904.687 67.12C904.687 74.176 903.343 79.888 900.655 84.256C898.015 88.576 893.407 90.736 886.831 90.736ZM967.934 105.856H1040.51V87.424H998.318L1021.5 67.12C1025.63 63.52 1029.11 60.304 1031.94 57.472C1034.77 54.592 1036.91 51.472 1038.35 48.112C1039.79 44.704 1040.51 40.432 1040.51 35.296C1040.51 28.336 1038.97 22.216 1035.9 16.936C1032.83 11.656 1028.61 7.55199 1023.23 4.62399C1017.9 1.648 1011.85 0.159998 1005.09 0.159998C997.694 0.159998 991.214 1.576 985.646 4.408C980.078 7.23999 975.734 11.248 972.614 16.432C969.494 21.616 967.934 27.76 967.934 34.864H988.094C987.998 31.984 988.646 29.32 990.038 26.872C991.43 24.376 993.374 22.384 995.87 20.896C998.414 19.36 1001.34 18.592 1004.65 18.592C1009.41 18.592 1013.2 20.152 1016.03 23.272C1018.91 26.344 1020.35 30.256 1020.35 35.008C1020.35 37.216 1019.68 39.592 1018.33 42.136C1016.99 44.68 1014.69 47.392 1011.42 50.272L967.934 88.864V105.856ZM1075.72 106H1095.74V2.32H1075.72L1056.28 13.984V35.584L1075.72 23.632V106ZM1120.51 106H1140.1V86.416H1120.51V106ZM1239.13 106H1259.14V2.32H1239.13L1219.69 13.984V35.584L1239.13 23.632V106ZM1321.22 108.16C1328.23 108.16 1334.47 106.744 1339.94 103.912C1345.41 101.032 1349.71 97.096 1352.83 92.104C1355.95 87.064 1357.51 81.328 1357.51 74.896C1357.51 70.144 1356.57 65.608 1354.7 61.288C1352.83 56.92 1350.17 53.248 1346.71 50.272C1349.35 47.248 1351.32 44.104 1352.61 40.84C1353.96 37.576 1354.63 33.952 1354.63 29.968C1354.63 23.968 1353.19 18.736 1350.31 14.272C1347.48 9.80799 1343.54 6.35199 1338.5 3.90399C1333.51 1.408 1327.75 0.159998 1321.22 0.159998C1314.69 0.159998 1308.91 1.408 1303.87 3.90399C1298.88 6.35199 1294.94 9.80799 1292.06 14.272C1289.23 18.736 1287.81 23.968 1287.81 29.968C1287.81 33.952 1288.51 37.6 1289.9 40.912C1291.34 44.224 1293.33 47.344 1295.88 50.272C1292.37 53.392 1289.69 57.112 1287.81 61.432C1285.99 65.704 1285.08 70.192 1285.08 74.896C1285.08 81.328 1286.61 87.064 1289.69 92.104C1292.81 97.096 1297.08 101.032 1302.5 103.912C1307.97 106.744 1314.21 108.16 1321.22 108.16ZM1321.22 41.344C1317.48 41.344 1314.43 40.432 1312.08 38.608C1309.73 36.736 1308.55 33.856 1308.55 29.968C1308.55 26.08 1309.73 23.2 1312.08 21.328C1314.43 19.408 1317.48 18.448 1321.22 18.448C1324.97 18.448 1328.01 19.408 1330.37 21.328C1332.72 23.2 1333.89 26.08 1333.89 29.968C1333.89 33.856 1332.72 36.736 1330.37 38.608C1328.01 40.432 1324.97 41.344 1321.22 41.344ZM1321.22 89.728C1316.61 89.728 1312.89 88.48 1310.06 85.984C1307.23 83.488 1305.81 79.792 1305.81 74.896C1305.81 70.048 1307.23 66.352 1310.06 63.808C1312.89 61.216 1316.61 59.92 1321.22 59.92C1325.83 59.92 1329.57 61.216 1332.45 63.808C1335.33 66.352 1336.77 70.048 1336.77 74.896C1336.77 79.792 1335.33 83.488 1332.45 85.984C1329.57 88.48 1325.83 89.728 1321.22 89.728ZM1425.22 52C1429.98 52 1434.3 50.848 1438.18 48.544C1442.12 46.192 1445.26 43.072 1447.62 39.184C1449.97 35.248 1451.14 30.88 1451.14 26.08C1451.14 21.28 1449.97 16.936 1447.62 13.048C1445.26 9.112 1442.12 5.992 1438.18 3.68799C1434.3 1.336 1429.98 0.159998 1425.22 0.159998C1420.62 0.159998 1416.34 1.336 1412.41 3.68799C1408.47 6.03999 1405.3 9.18399 1402.9 13.12C1400.5 17.056 1399.3 21.376 1399.3 26.08C1399.3 30.88 1400.46 35.248 1402.76 39.184C1405.11 43.072 1408.26 46.192 1412.19 48.544C1416.13 50.848 1420.47 52 1425.22 52ZM1425.22 35.44C1422.73 35.44 1420.54 34.504 1418.67 32.632C1416.8 30.76 1415.86 28.576 1415.86 26.08C1415.86 23.536 1416.8 21.352 1418.67 19.528C1420.54 17.656 1422.73 16.72 1425.22 16.72C1427.77 16.72 1429.95 17.656 1431.78 19.528C1433.65 21.352 1434.58 23.536 1434.58 26.08C1434.58 28.576 1433.65 30.76 1431.78 32.632C1429.95 34.504 1427.77 35.44 1425.22 35.44ZM1514.39 108.16C1526.29 108.16 1536.28 105.208 1544.34 99.304C1552.45 93.4 1558.16 85.408 1561.48 75.328L1541.75 69.856C1539.83 76.096 1536.59 80.968 1532.03 84.472C1527.47 87.976 1521.59 89.728 1514.39 89.728C1504.55 89.728 1497.13 86.512 1492.14 80.08C1487.2 73.6 1484.72 64.96 1484.72 54.16C1484.72 43.36 1487.2 34.744 1492.14 28.312C1497.13 21.832 1504.55 18.592 1514.39 18.592C1521.59 18.592 1527.47 20.344 1532.03 23.848C1536.59 27.304 1539.83 32.176 1541.75 38.464L1561.48 32.992C1558.16 22.912 1552.45 14.92 1544.34 9.01599C1536.28 3.112 1526.29 0.159998 1514.39 0.159998C1504.02 0.159998 1495.07 2.416 1487.53 6.928C1480.04 11.44 1474.26 17.752 1470.18 25.864C1466.15 33.976 1464.13 43.408 1464.13 54.16C1464.13 64.912 1466.15 74.344 1470.18 82.456C1474.26 90.568 1480.04 96.88 1487.53 101.392C1495.07 105.904 1504.02 108.16 1514.39 108.16Z" fill="white"/>
</svg>
