<svg width="1360" height="172" viewBox="0 0 1360 172" fill="none" xmlns="http://www.w3.org/2000/svg">
<rect width="1360" height="171.069" rx="45.6184" fill="white" fill-opacity="0.7" style="mix-blend-mode:lighten"/>
<rect x="28.5116" y="28.5117" width="114.046" height="114.046" rx="22.8092" fill="black"/>
<rect x="1066.33" y="28.5117" width="114.046" height="114.046" rx="22.8092" fill="black"/>
<rect x="176.772" y="28.5117" width="114.046" height="114.046" rx="22.8092" fill="#E0E0E0"/>
<rect x="176.772" y="28.5117" width="114.046" height="114.046" rx="22.8092" fill="white"/>
<rect x="1214.59" y="28.5117" width="114.046" height="114.046" rx="22.8092" fill="#E0E0E0"/>
<rect x="1214.59" y="28.5117" width="114.046" height="114.046" rx="22.8092" fill="#8526D0"/>
<rect x="325.031" y="28.5117" width="114.046" height="114.046" rx="22.8092" fill="#2787F5"/>
<rect x="473.291" y="28.5117" width="114.046" height="114.046" rx="22.8092" fill="#649E56"/>
<rect x="621.551" y="28.5117" width="114.046" height="114.046" rx="22.8092" fill="white"/>
<path d="M696.712 65.4627C695.564 63.8009 693.651 62.7256 691.515 62.7256L656.44 62.7582C652.933 62.7582 650.063 65.6582 650.063 69.2425V101.827C650.063 105.411 652.933 108.311 656.44 108.311L691.515 108.344C693.651 108.344 695.564 107.269 696.712 105.607L709.339 87.4247C710.136 86.2843 710.136 84.7854 709.339 83.6449L696.712 65.4627Z" fill="#8526D0"/>
<rect x="769.811" y="28.5117" width="114.046" height="114.046" rx="22.8092" fill="white"/>
<path d="M844.972 65.4627C843.825 63.8009 841.911 62.7256 839.775 62.7256L804.7 62.7582C801.193 62.7582 798.323 65.6582 798.323 69.2425V101.827C798.323 105.411 801.193 108.311 804.7 108.311L839.775 108.344C841.911 108.344 843.825 107.269 844.972 105.607L857.599 87.4247C858.397 86.2843 858.397 84.7854 857.599 83.6449L844.972 65.4627Z" fill="#F40E0E"/>
<rect x="918.071" y="28.5117" width="114.046" height="114.046" rx="22.8092" fill="white"/>
<path d="M971.074 64.4078C969.991 63.3243 968.537 62.7256 967.026 62.7256H952.285C949.149 62.7256 946.611 65.2916 946.611 68.4279L946.583 102.642C946.583 105.778 949.149 108.344 952.285 108.344H997.904C1001.04 108.344 1003.61 105.778 1003.61 102.642V74.1302C1003.61 70.9939 1001.04 68.4279 997.904 68.4279H975.094L971.074 64.4078Z" fill="#C0C0C0"/>
</svg>
