<svg width="761" height="212" viewBox="0 0 761 212" fill="none" xmlns="http://www.w3.org/2000/svg">
<path d="M0.4 211.712H143.104V179.024H54.112L107.248 131.936C115.12 125.024 121.696 118.736 126.976 113.072C132.352 107.312 136.384 101.12 139.072 94.496C141.76 87.776 143.104 79.472 143.104 69.584C143.104 56.048 140.032 44.096 133.888 33.728C127.84 23.264 119.584 15.104 109.12 9.24798C98.656 3.29599 86.752 0.319996 73.408 0.319996C59.104 0.319996 46.48 3.152 35.536 8.816C24.592 14.48 16.048 22.448 9.904 32.72C3.76 42.992 0.688001 55.04 0.688001 68.864H36.4C36.208 62.528 37.648 56.624 40.72 51.152C43.792 45.68 48.064 41.312 53.536 38.048C59.104 34.688 65.488 33.008 72.688 33.008C82.96 33.008 91.312 36.464 97.744 43.376C104.272 50.192 107.536 58.784 107.536 69.152C107.536 74.24 106.144 79.52 103.36 84.992C100.672 90.464 95.92 96.272 89.104 102.416L0.4 181.472V211.712ZM171.963 211.712H314.667V179.024H225.675L278.811 131.936C286.683 125.024 293.259 118.736 298.539 113.072C303.915 107.312 307.947 101.12 310.635 94.496C313.323 87.776 314.667 79.472 314.667 69.584C314.667 56.048 311.595 44.096 305.451 33.728C299.403 23.264 291.147 15.104 280.683 9.24798C270.219 3.29599 258.315 0.319996 244.971 0.319996C230.667 0.319996 218.043 3.152 207.099 8.816C196.155 14.48 187.611 22.448 181.467 32.72C175.323 42.992 172.251 55.04 172.251 68.864H207.963C207.771 62.528 209.211 56.624 212.283 51.152C215.355 45.68 219.627 41.312 225.099 38.048C230.667 34.688 237.051 33.008 244.251 33.008C254.523 33.008 262.875 36.464 269.307 43.376C275.835 50.192 279.099 58.784 279.099 69.152C279.099 74.24 277.707 79.52 274.923 84.992C272.235 90.464 267.483 96.272 260.667 102.416L171.963 181.472V211.712ZM360.805 193.28H396.373V157.712H360.805V193.28ZM361.093 110.768H396.661V75.2H361.093V110.768ZM534.116 212H569.252V177.728H588.692V145.328H569.252V91.328H534.116V145.328H481.844L548.228 4.63999H508.628L442.244 145.328V177.728H534.116V212ZM617.463 211.712H760.167V179.024H671.175L724.311 131.936C732.183 125.024 738.759 118.736 744.039 113.072C749.415 107.312 753.447 101.12 756.135 94.496C758.823 87.776 760.167 79.472 760.167 69.584C760.167 56.048 757.095 44.096 750.951 33.728C744.903 23.264 736.647 15.104 726.183 9.24798C715.719 3.29599 703.815 0.319996 690.471 0.319996C676.167 0.319996 663.543 3.152 652.599 8.816C641.655 14.48 633.111 22.448 626.967 32.72C620.823 42.992 617.751 55.04 617.751 68.864H653.463C653.271 62.528 654.711 56.624 657.783 51.152C660.855 45.68 665.127 41.312 670.599 38.048C676.167 34.688 682.551 33.008 689.751 33.008C700.023 33.008 708.375 36.464 714.807 43.376C721.335 50.192 724.599 58.784 724.599 69.152C724.599 74.24 723.207 79.52 720.423 84.992C717.735 90.464 712.983 96.272 706.167 102.416L617.463 181.472V211.712Z" fill="white"/>
</svg>
