<svg width="4070" height="2885" viewBox="0 0 4070 2885" fill="none" xmlns="http://www.w3.org/2000/svg">
<g clip-path="url(#clip0)">
<rect width="4072.15" height="2886.68" fill="#EFEFEF"/>
<rect x="2735.25" y="56.7871" width="1268.97" height="89.7248" rx="8.54522" fill="#DFDFDF"/>
<rect x="681.446" y="340.724" width="737.95" height="281.124" rx="14.0562" fill="#FBFBFB"/>
<rect x="720.101" y="386.41" width="112.45" height="112.45" rx="28.1124" fill="#E0E0E0"/>
<rect x="681.446" y="1352.78" width="737.95" height="281.124" rx="14.0562" fill="#FBFBFB"/>
<rect x="720" y="1574" width="287" height="19" rx="9.5" fill="#6C6C6C" fill-opacity="0.25"/>
<rect x="720.101" y="1398.46" width="112.45" height="112.45" rx="28.1124" fill="#E0E0E0"/>
<rect x="873" y="1436" width="492.156" height="37.8581" rx="18.9291" fill="#6C6C6C" fill-opacity="0.85"/>
<rect x="1475.62" y="340.724" width="737.95" height="618.473" rx="14.0562" fill="#FBFBFB"/>
<rect x="1514" y="898" width="242" height="19" rx="9.5" fill="#6C6C6C" fill-opacity="0.25"/>
<rect x="1514.28" y="386.683" width="112.45" height="112.45" rx="28.1124" fill="#E0E0E0"/>
<rect x="1665.76" y="416.439" width="246.078" height="37.8581" rx="18.9291" fill="#6C6C6C" fill-opacity="0.85"/>
<rect x="1514" y="550" width="570" height="30" rx="15" fill="#6C6C6C" fill-opacity="0.54"/>
<rect x="1514" y="609" width="604" height="30" rx="15" fill="#6C6C6C" fill-opacity="0.54"/>
<rect x="1514" y="668" width="450" height="30" rx="15" fill="#6C6C6C" fill-opacity="0.54"/>
<rect x="1514" y="727" width="493" height="30" rx="15" fill="#6C6C6C" fill-opacity="0.54"/>
<rect x="1514" y="786" width="591" height="30" rx="15" fill="#6C6C6C" fill-opacity="0.54"/>
<rect x="2271" y="1023" width="737.95" height="618.473" rx="14.0562" fill="#FBFBFB"/>
<rect x="2309.38" y="1580.28" width="242" height="19" rx="9.5" fill="#6C6C6C" fill-opacity="0.25"/>
<rect x="2309.65" y="1068.96" width="112.45" height="112.45" rx="28.1124" fill="#E0E0E0"/>
<rect x="2461.14" y="1098.72" width="246.078" height="37.8581" rx="18.9291" fill="#6C6C6C" fill-opacity="0.85"/>
<rect x="2309.38" y="1232.28" width="570" height="30" rx="15" fill="#6C6C6C" fill-opacity="0.54"/>
<rect x="2309.38" y="1291.28" width="604" height="30" rx="15" fill="#6C6C6C" fill-opacity="0.54"/>
<rect x="2309.38" y="1350.28" width="450" height="30" rx="15" fill="#6C6C6C" fill-opacity="0.54"/>
<rect x="2309.38" y="1409.28" width="493" height="30" rx="15" fill="#6C6C6C" fill-opacity="0.54"/>
<rect x="2309.38" y="1468.28" width="591" height="30" rx="15" fill="#6C6C6C" fill-opacity="0.54"/>
<rect x="3066" y="340" width="737.95" height="955.822" rx="14.0562" fill="#FBFBFB"/>
<rect x="3114.38" y="1236" width="273" height="19" rx="9.5" fill="#6C6C6C" fill-opacity="0.25"/>
<rect x="3114.38" y="915" width="570" height="30" rx="15" fill="#6C6C6C" fill-opacity="0.54"/>
<rect x="3114.38" y="974" width="437" height="30" rx="15" fill="#6C6C6C" fill-opacity="0.54"/>
<rect x="3114.38" y="1033" width="450" height="30" rx="15" fill="#6C6C6C" fill-opacity="0.54"/>
<rect x="3114.38" y="1092" width="516" height="30" rx="15" fill="#6C6C6C" fill-opacity="0.54"/>
<path d="M3066 354C3066 346.268 3072.27 340 3080 340H3790C3797.73 340 3804 346.268 3804 354V728H3066V354Z" fill="#88C8CB"/>
<rect x="3447" y="386" width="357" height="305" fill="#BAFCFF"/>
<rect x="3118.38" y="532" width="254" height="30" rx="15" fill="white" fill-opacity="0.54"/>
<rect x="3118.38" y="584" width="165" height="30" rx="15" fill="white" fill-opacity="0.54"/>
<rect x="3118.38" y="437" width="171" height="38" rx="19" fill="white" fill-opacity="0.85"/>
<rect x="3114.17" y="765.074" width="217.684" height="37.8581" rx="18.9291" fill="#6C6C6C" fill-opacity="0.85"/>
<rect x="3114.17" y="821.86" width="283.936" height="37.8581" rx="18.9291" fill="#6C6C6C" fill-opacity="0.85"/>
<rect x="1476" y="1023" width="737.95" height="955.822" rx="14.0562" fill="#FBFBFB"/>
<rect x="1524.38" y="1919" width="273" height="19" rx="9.5" fill="#6C6C6C" fill-opacity="0.25"/>
<rect x="1524.38" y="1598" width="570" height="30" rx="15" fill="#6C6C6C" fill-opacity="0.54"/>
<rect x="1524.38" y="1657" width="437" height="30" rx="15" fill="#6C6C6C" fill-opacity="0.54"/>
<rect x="1524.38" y="1716" width="450" height="30" rx="15" fill="#6C6C6C" fill-opacity="0.54"/>
<rect x="1524.38" y="1775" width="516" height="30" rx="15" fill="#6C6C6C" fill-opacity="0.54"/>
<path d="M1476 1037C1476 1029.27 1482.27 1023 1490 1023H2200C2207.73 1023 2214 1029.27 2214 1037V1411H1476V1037Z" fill="#82C771"/>
<rect x="1857" y="1069" width="357" height="305" fill="#57A443"/>
<rect x="1528.38" y="1215" width="254" height="30" rx="15" fill="white" fill-opacity="0.54"/>
<rect x="1528.38" y="1267" width="165" height="30" rx="15" fill="white" fill-opacity="0.54"/>
<rect x="1528.38" y="1120" width="171" height="38" rx="19" fill="white" fill-opacity="0.85"/>
<rect x="1524.17" y="1448.07" width="217.684" height="37.8581" rx="18.9291" fill="#6C6C6C" fill-opacity="0.85"/>
<rect x="1524.17" y="1504.86" width="283.936" height="37.8581" rx="18.9291" fill="#6C6C6C" fill-opacity="0.85"/>
<rect width="555" height="2887" fill="#F9F9F9"/>
<rect x="53.4072" y="42.7285" width="42.7261" height="42.7261" fill="#66FFEC"/>
<rect y="408.033" width="555.439" height="68.3618" fill="#E9E9E9"/>
<rect x="47.3228" y="425.904" width="104.11" height="28.3936" rx="14.1968" fill="#C4C4C4" fill-opacity="0.69"/>
<rect y="271.311" width="555.439" height="68.3618" fill="#D9D9D9" fill-opacity="0.5"/>
<rect x="47.3228" y="227.148" width="141.968" height="28.3936" rx="14.1968" fill="#C4C4C4" fill-opacity="0.69"/>
<rect x="113.574" y="47.3232" width="141.968" height="28.3936" rx="14.1968" fill="#4D4D4D" fill-opacity="0.38"/>
<rect x="47.3228" y="293.4" width="123.039" height="28.3936" rx="14.1968" fill="#C4C4C4" fill-opacity="0.69"/>
<rect x="47.3228" y="359.652" width="265.007" height="28.3936" rx="14.1968" fill="#C4C4C4" fill-opacity="0.69"/>
<rect x="871" y="423" width="246.078" height="37.8581" rx="18.9291" fill="#6C6C6C" fill-opacity="0.85"/>
<rect x="720" y="568" width="369.117" height="18.9291" rx="9.46453" fill="#6C6C6C" fill-opacity="0.25"/>
<rect x="2271" y="341.072" width="737.95" height="618.473" rx="14.0562" fill="#FBFBFB"/>
<rect x="2309.55" y="908" width="519" height="19" rx="9.5" fill="#6C6C6C" fill-opacity="0.25"/>
<rect x="2309.55" y="799" width="246.078" height="37.8581" rx="18.9291" fill="#6C6C6C" fill-opacity="0.85"/>
<path d="M2271 355C2271 347.268 2277.27 341 2285 341H2995C3002.73 341 3009 347.268 3009 355V728H2271V355Z" fill="#364754"/>
<path d="M2754 504H2308V588H2618V546H2754V504Z" fill="#93D1EE"/>
<rect x="681" y="661.072" width="737.95" height="618.473" rx="14.0562" fill="#FBFBFB"/>
<rect x="719.554" y="1228" width="519" height="19" rx="9.5" fill="#6C6C6C" fill-opacity="0.25"/>
<rect x="719.554" y="1119" width="246.078" height="37.8581" rx="18.9291" fill="#6C6C6C" fill-opacity="0.85"/>
<path d="M681 675C681 667.268 687.268 661 695 661H1405C1412.73 661 1419 667.268 1419 675V1048H681V675Z" fill="#364754"/>
<path d="M1304 824H718V908H1163V866H1304V824Z" fill="#93D1EE"/>
</g>
<defs>
<clipPath id="clip0">
<rect width="4069.75" height="2885" fill="white"/>
</clipPath>
</defs>
</svg>
