<svg width="183" height="36" viewBox="0 0 183 36" fill="none" xmlns="http://www.w3.org/2000/svg">
<path d="M5.02 27V5.814L0.16 8.784V3.996L5.02 1.08H9.448V27H5.02ZM24.7832 27.54C23.0672 27.54 21.5432 27.192 20.2112 26.496C18.8792 25.8 17.8352 24.834 17.0792 23.598C16.3232 22.362 15.9452 20.946 15.9452 19.35C15.9452 17.922 16.2752 16.596 16.9352 15.372C17.5952 14.148 18.5612 13.17 19.8332 12.438L19.7432 13.824C18.7472 13.068 17.9732 12.198 17.4212 11.214C16.8812 10.218 16.6112 9.102 16.6112 7.866C16.6112 6.378 16.9592 5.088 17.6552 3.996C18.3632 2.904 19.3292 2.058 20.5532 1.458C21.7772 0.845999 23.1872 0.539999 24.7832 0.539999C26.3792 0.539999 27.7892 0.845999 29.0132 1.458C30.2492 2.058 31.2152 2.904 31.9112 3.996C32.6192 5.088 32.9732 6.378 32.9732 7.866C32.9732 9.102 32.7092 10.212 32.1812 11.196C31.6652 12.18 30.8792 13.068 29.8232 13.86L29.8052 12.456C31.0532 13.164 32.0072 14.136 32.6672 15.372C33.3392 16.596 33.6752 17.922 33.6752 19.35C33.6752 20.946 33.2912 22.362 32.5232 23.598C31.7672 24.834 30.7172 25.8 29.3732 26.496C28.0412 27.192 26.5112 27.54 24.7832 27.54ZM24.7832 23.454C26.0552 23.454 27.0872 23.106 27.8792 22.41C28.6832 21.714 29.0852 20.694 29.0852 19.35C29.0852 18.006 28.6892 16.986 27.8972 16.29C27.1052 15.582 26.0672 15.228 24.7832 15.228C23.5112 15.228 22.4852 15.582 21.7052 16.29C20.9252 16.986 20.5352 18.006 20.5352 19.35C20.5352 20.694 20.9252 21.714 21.7052 22.41C22.4852 23.106 23.5112 23.454 24.7832 23.454ZM24.7832 11.106C25.8512 11.106 26.7152 10.842 27.3752 10.314C28.0472 9.774 28.3832 8.958 28.3832 7.866C28.3832 6.774 28.0472 5.964 27.3752 5.436C26.7152 4.896 25.8512 4.626 24.7832 4.626C23.7272 4.626 22.8632 4.896 22.1912 5.436C21.5312 5.964 21.2012 6.774 21.2012 7.866C21.2012 8.958 21.5312 9.774 22.1912 10.314C22.8632 10.842 23.7272 11.106 24.7832 11.106ZM43.3881 13.5C42.2001 13.5 41.1141 13.212 40.1301 12.636C39.1461 12.048 38.3601 11.268 37.7721 10.296C37.1961 9.312 36.9081 8.22 36.9081 7.02C36.9081 5.844 37.2081 4.764 37.8081 3.78C38.4081 2.796 39.2001 2.01 40.1841 1.422C41.1681 0.833999 42.2361 0.539999 43.3881 0.539999C44.5761 0.539999 45.6561 0.833999 46.6281 1.422C47.6121 1.998 48.3981 2.778 48.9861 3.762C49.5741 4.734 49.8681 5.82 49.8681 7.02C49.8681 8.22 49.5741 9.312 48.9861 10.296C48.3981 11.268 47.6121 12.048 46.6281 12.636C45.6561 13.212 44.5761 13.5 43.3881 13.5ZM43.3881 9.792C43.8921 9.792 44.3541 9.666 44.7741 9.414C45.1941 9.162 45.5301 8.826 45.7821 8.406C46.0341 7.986 46.1601 7.524 46.1601 7.02C46.1601 6.516 46.0341 6.054 45.7821 5.634C45.5301 5.214 45.1941 4.878 44.7741 4.626C44.3541 4.374 43.8921 4.248 43.3881 4.248C42.8841 4.248 42.4221 4.374 42.0021 4.626C41.5821 4.878 41.2461 5.214 40.9941 5.634C40.7421 6.054 40.6161 6.516 40.6161 7.02C40.6161 7.524 40.7421 7.986 40.9941 8.406C41.2461 8.826 41.5821 9.162 42.0021 9.414C42.4221 9.666 42.8841 9.792 43.3881 9.792ZM72.7242 27.54C70.1322 27.54 67.9122 26.976 66.0642 25.848C64.2162 24.708 62.7942 23.124 61.7982 21.096C60.8142 19.068 60.3222 16.716 60.3222 14.04C60.3222 11.364 60.8142 9.012 61.7982 6.984C62.7942 4.956 64.2162 3.378 66.0642 2.25C67.9122 1.11 70.1322 0.539999 72.7242 0.539999C75.7122 0.539999 78.2022 1.29 80.1942 2.79C82.1862 4.278 83.5842 6.288 84.3882 8.82L80.0142 10.026C79.5102 8.334 78.6522 7.014 77.4402 6.066C76.2282 5.106 74.6562 4.626 72.7242 4.626C70.9842 4.626 69.5322 5.016 68.3682 5.796C67.2162 6.576 66.3462 7.674 65.7582 9.09C65.1822 10.494 64.8882 12.144 64.8762 14.04C64.8762 15.936 65.1642 17.592 65.7402 19.008C66.3282 20.412 67.2042 21.504 68.3682 22.284C69.5322 23.064 70.9842 23.454 72.7242 23.454C74.6562 23.454 76.2282 22.974 77.4402 22.014C78.6522 21.054 79.5102 19.734 80.0142 18.054L84.3882 19.26C83.5842 21.792 82.1862 23.808 80.1942 25.308C78.2022 26.796 75.7122 27.54 72.7242 27.54ZM88.7003 27V0.539999H93.0383V27H88.7003ZM107.016 27.54C105.072 27.54 103.374 27.102 101.922 26.226C100.47 25.35 99.3422 24.144 98.5382 22.608C97.7462 21.06 97.3502 19.284 97.3502 17.28C97.3502 15.24 97.7582 13.452 98.5742 11.916C99.3902 10.38 100.524 9.18 101.976 8.316C103.428 7.452 105.108 7.02 107.016 7.02C108.972 7.02 110.676 7.458 112.128 8.334C113.58 9.21 114.708 10.422 115.512 11.97C116.316 13.506 116.718 15.276 116.718 17.28C116.718 19.296 116.31 21.078 115.494 22.626C114.69 24.162 113.562 25.368 112.11 26.244C110.658 27.108 108.96 27.54 107.016 27.54ZM107.016 23.472C108.744 23.472 110.028 22.896 110.868 21.744C111.708 20.592 112.128 19.104 112.128 17.28C112.128 15.396 111.702 13.896 110.85 12.78C109.998 11.652 108.72 11.088 107.016 11.088C105.852 11.088 104.892 11.352 104.136 11.88C103.392 12.396 102.84 13.122 102.48 14.058C102.12 14.982 101.94 16.056 101.94 17.28C101.94 19.164 102.366 20.67 103.218 21.798C104.082 22.914 105.348 23.472 107.016 23.472ZM127.974 27.558C126.534 27.558 125.346 27.318 124.41 26.838C123.474 26.358 122.73 25.746 122.178 25.002C121.626 24.258 121.218 23.466 120.954 22.626C120.69 21.786 120.516 20.994 120.432 20.25C120.36 19.494 120.324 18.882 120.324 18.414V7.56H124.716V16.92C124.716 17.52 124.758 18.198 124.842 18.954C124.926 19.698 125.118 20.418 125.418 21.114C125.73 21.798 126.186 22.362 126.786 22.806C127.398 23.25 128.22 23.472 129.252 23.472C129.804 23.472 130.35 23.382 130.89 23.202C131.43 23.022 131.916 22.716 132.348 22.284C132.792 21.84 133.146 21.234 133.41 20.466C133.674 19.698 133.806 18.726 133.806 17.55L136.38 18.648C136.38 20.304 136.056 21.804 135.408 23.148C134.772 24.492 133.83 25.566 132.582 26.37C131.334 27.162 129.798 27.558 127.974 27.558ZM134.328 27V20.97H133.806V7.56H138.162V27H134.328ZM151.013 27.54C149.225 27.54 147.665 27.09 146.333 26.19C145.001 25.29 143.969 24.066 143.237 22.518C142.505 20.97 142.139 19.224 142.139 17.28C142.139 15.312 142.505 13.56 143.237 12.024C143.981 10.476 145.031 9.258 146.387 8.37C147.743 7.47 149.339 7.02 151.175 7.02C153.023 7.02 154.571 7.47 155.819 8.37C157.079 9.258 158.033 10.476 158.681 12.024C159.329 13.572 159.653 15.324 159.653 17.28C159.653 19.212 159.329 20.958 158.681 22.518C158.033 24.066 157.067 25.29 155.783 26.19C154.499 27.09 152.909 27.54 151.013 27.54ZM151.679 23.652C152.843 23.652 153.779 23.388 154.487 22.86C155.207 22.32 155.729 21.57 156.053 20.61C156.389 19.65 156.557 18.54 156.557 17.28C156.557 16.008 156.389 14.898 156.053 13.95C155.729 12.99 155.219 12.246 154.523 11.718C153.827 11.178 152.927 10.908 151.823 10.908C150.659 10.908 149.699 11.196 148.943 11.772C148.187 12.336 147.629 13.104 147.269 14.076C146.909 15.036 146.729 16.104 146.729 17.28C146.729 18.468 146.903 19.548 147.251 20.52C147.611 21.48 148.157 22.242 148.889 22.806C149.621 23.37 150.551 23.652 151.679 23.652ZM156.557 27V13.356H156.017V1.08H160.391V27H156.557ZM167.994 35.64L171.738 25.362L171.81 28.386L163.332 7.56H167.85L173.862 22.968H172.71L178.56 7.56H182.898L172.062 35.64H167.994Z" fill="white"/>
</svg>
