<svg width="1815" height="115" viewBox="0 0 1815 115" fill="none" xmlns="http://www.w3.org/2000/svg">
<rect x="779.125" width="296.125" height="115" rx="23" fill="white" fill-opacity="0.7"/>
<path d="M854.914 37.261C853.757 35.5853 851.828 34.501 849.674 34.501L814.305 34.5338C810.769 34.5338 807.875 37.4581 807.875 41.0724V73.9295C807.875 77.5438 810.769 80.4681 814.305 80.4681L849.674 80.501C851.828 80.501 853.757 79.4167 854.914 77.741L867.647 59.4067C868.451 58.2567 868.451 56.7453 867.647 55.5953L854.914 37.261Z" fill="#8526D0"/>
<rect x="1109.75" width="362.25" height="115" rx="23" fill="white" fill-opacity="0.7"/>
<path d="M1185.54 37.261C1184.38 35.5853 1182.45 34.501 1180.3 34.501L1144.93 34.5338C1141.39 34.5338 1138.5 37.4581 1138.5 41.0724V73.9295C1138.5 77.5438 1141.39 80.4681 1144.93 80.4681L1180.3 80.501C1182.45 80.501 1184.38 79.4167 1185.54 77.741L1198.27 59.4067C1199.08 58.2567 1199.08 56.7453 1198.27 55.5953L1185.54 37.261Z" fill="#F40E0E"/>
<rect x="1506.5" width="307.625" height="115" rx="23" fill="white" fill-opacity="0.7"/>
<path d="M1559.95 36.1972C1558.85 35.1047 1557.39 34.501 1555.86 34.501H1541C1537.84 34.501 1535.28 37.0885 1535.28 40.251L1535.25 74.751C1535.25 77.9135 1537.84 80.501 1541 80.501H1587C1590.16 80.501 1592.75 77.9135 1592.75 74.751V46.001C1592.75 42.8385 1590.16 40.251 1587 40.251H1564L1559.95 36.1972Z" fill="#C0C0C0"/>
<rect width="247.25" height="115" rx="23" fill="white" fill-opacity="0.7"/>
<rect x="20.1248" y="17.25" width="80.5" height="80.5" rx="23" fill="black"/>
<rect x="276" width="468.625" height="115" rx="23" fill="white" fill-opacity="0.7"/>
<rect x="296.125" y="17.25" width="80.5" height="80.5" rx="23" fill="white"/>
<rect x="124" y="43" width="85" height="29" rx="14.5" fill="#575757" fill-opacity="0.85"/>
<rect x="393" y="43" width="309" height="29" rx="14.5" fill="#575757" fill-opacity="0.85"/>
<rect x="891" y="43" width="143" height="29" rx="14.5" fill="#575757" fill-opacity="0.85"/>
<rect x="1225" y="43" width="214" height="29" rx="14.5" fill="#575757" fill-opacity="0.85"/>
<rect x="1621" y="43" width="147" height="29" rx="14.5" fill="#575757" fill-opacity="0.85"/>
</svg>
