<svg width="430" height="57" viewBox="0 0 430 57" fill="none" xmlns="http://www.w3.org/2000/svg">
<path d="M13.3791 42V8.52397H0.56452V1.35457H33.8712V8.52397H21.0566V42H13.3791ZM46.9425 42.9032C44.5527 42.9032 42.6051 42.4987 41.0997 41.6895C39.5943 40.8804 38.4182 39.8548 37.5714 38.6129C36.7435 37.3709 36.1507 36.0819 35.7932 34.7459C35.4357 33.3911 35.2193 32.1585 35.144 31.0483C35.0687 29.9381 35.0311 29.1289 35.0311 28.6209V11.5159H42.8215V25.9112C42.8215 26.6074 42.8591 27.5012 42.9344 28.5927C43.0097 29.6652 43.2449 30.7472 43.64 31.8386C44.0352 32.93 44.675 33.8427 45.5594 34.5766C46.4626 35.3104 47.7328 35.6774 49.3699 35.6774C50.0285 35.6774 50.7342 35.5739 51.4869 35.3669C52.2396 35.1599 52.9452 34.7647 53.6038 34.1814C54.2624 33.5792 54.7987 32.7042 55.2127 31.5564C55.6455 30.3897 55.8619 28.8655 55.8619 26.9838L60.2651 29.0725C60.2651 31.4811 59.7759 33.7392 58.7974 35.8467C57.8189 37.9543 56.3417 39.6572 54.3659 40.9556C52.4089 42.254 49.9344 42.9032 46.9425 42.9032ZM56.8216 42V31.8951H55.8619V11.5159H63.5958V42H56.8216ZM85.654 42.8468C82.5303 42.8468 79.7736 42.1788 77.3838 40.8427C75.0128 39.4879 73.1499 37.6344 71.795 35.2822C70.459 32.9112 69.791 30.2015 69.791 27.1531C69.791 23.8225 70.4496 20.9246 71.7668 18.4595C73.084 15.9944 74.8999 14.0845 77.2144 12.7296C79.5289 11.356 82.1916 10.6691 85.2024 10.6691C88.4013 10.6691 91.1204 11.4218 93.3597 12.9272C95.5989 14.4326 97.2549 16.5496 98.3275 19.2781C99.4 22.0066 99.7764 25.2149 99.4565 28.9031H91.8637V26.0805C91.8637 22.9757 91.365 20.7458 90.3677 19.391C89.3892 18.0173 87.7803 17.3305 85.5411 17.3305C82.9255 17.3305 80.9967 18.1302 79.7548 19.7297C78.5316 21.3103 77.9201 23.6531 77.9201 26.758C77.9201 29.5994 78.5316 31.801 79.7548 33.3628C80.9967 34.9059 82.8126 35.6774 85.2024 35.6774C86.7078 35.6774 87.9967 35.3481 89.0693 34.6895C90.1419 34.0309 90.9605 33.0806 91.525 31.8386L99.2025 34.0403C98.0546 36.8252 96.2387 38.9892 93.7548 40.5322C91.2898 42.0753 88.5895 42.8468 85.654 42.8468ZM75.5491 28.9031V23.2015H95.7589V28.9031H75.5491ZM117.741 42.8468C113.902 42.8468 110.798 41.9812 108.427 40.25C106.074 38.5 104.644 36.0349 104.136 32.8548L111.983 31.6693C112.303 33.0994 113.009 34.219 114.1 35.0282C115.21 35.8373 116.612 36.2419 118.306 36.2419C119.698 36.2419 120.771 35.9785 121.523 35.4516C122.276 34.9059 122.653 34.1532 122.653 33.1935C122.653 32.5913 122.502 32.1115 122.201 31.754C121.9 31.3776 121.222 31.0107 120.169 30.6532C119.134 30.2956 117.515 29.8252 115.314 29.2419C112.83 28.6021 110.845 27.887 109.358 27.0967C107.872 26.3063 106.799 25.3655 106.14 24.2741C105.482 23.1639 105.152 21.8278 105.152 20.266C105.152 18.309 105.651 16.6154 106.648 15.1853C107.646 13.7364 109.048 12.6261 110.854 11.8546C112.679 11.0643 114.825 10.6691 117.29 10.6691C119.679 10.6691 121.796 11.0361 123.64 11.77C125.485 12.5038 126.971 13.5482 128.1 14.903C129.248 16.2579 129.954 17.8574 130.217 19.7015L122.37 21.1128C122.239 19.9837 121.749 19.0899 120.903 18.4313C120.056 17.7727 118.908 17.3869 117.459 17.274C116.048 17.1799 114.909 17.3681 114.044 17.8385C113.197 18.309 112.773 18.9864 112.773 19.8708C112.773 20.3977 112.952 20.8399 113.31 21.1974C113.686 21.555 114.448 21.9219 115.596 22.2983C116.763 22.6746 118.532 23.1639 120.903 23.766C123.217 24.3682 125.071 25.0738 126.463 25.883C127.874 26.6733 128.9 27.633 129.54 28.762C130.179 29.8722 130.499 31.2177 130.499 32.7983C130.499 35.922 129.37 38.3777 127.112 40.1653C124.854 41.953 121.73 42.8468 117.741 42.8468ZM149.065 42.8468C146.261 42.8468 143.806 42.1411 141.698 40.7298C139.59 39.3185 137.944 37.3992 136.758 34.9717C135.592 32.5443 135.008 29.8064 135.008 26.758C135.008 23.6531 135.601 20.8964 136.787 18.4877C137.991 16.0603 139.675 14.1504 141.839 12.7579C144.003 11.3654 146.543 10.6691 149.46 10.6691C152.358 10.6691 154.795 11.3748 156.771 12.7861C158.747 14.1974 160.243 16.1168 161.259 18.5442C162.275 20.9716 162.783 23.7096 162.783 26.758C162.783 29.8064 162.265 32.5443 161.23 34.9717C160.214 37.3992 158.69 39.3185 156.658 40.7298C154.626 42.1411 152.095 42.8468 149.065 42.8468ZM150.307 36.0161C152.019 36.0161 153.384 35.6303 154.4 34.8588C155.435 34.0873 156.178 33.0053 156.63 31.6128C157.081 30.2204 157.307 28.6021 157.307 26.758C157.307 24.9139 157.081 23.2956 156.63 21.9031C156.178 20.5106 155.453 19.4286 154.456 18.6571C153.478 17.8856 152.189 17.4998 150.589 17.4998C148.877 17.4998 147.466 17.9232 146.355 18.77C145.264 19.598 144.455 20.7176 143.928 22.1289C143.401 23.5214 143.138 25.0644 143.138 26.758C143.138 28.4703 143.392 30.0322 143.9 31.4435C144.408 32.836 145.189 33.9462 146.242 34.7741C147.296 35.6021 148.651 36.0161 150.307 36.0161ZM157.307 42V21.1128H156.347V1.35457H164.081V42H157.307ZM180.452 42.8468C178.269 42.8468 176.416 42.4328 174.892 41.6048C173.386 40.7581 172.239 39.6384 171.448 38.2459C170.677 36.8346 170.291 35.2822 170.291 33.5887C170.291 32.1774 170.507 30.8884 170.94 29.7217C171.373 28.555 172.069 27.5295 173.029 26.6451C174.007 25.7418 175.315 24.9891 176.952 24.387C178.081 23.973 179.427 23.6061 180.989 23.2862C182.55 22.9663 184.319 22.6652 186.295 22.3829C188.271 22.0819 190.444 21.7526 192.815 21.395L190.049 22.9192C190.049 21.1128 189.616 19.7861 188.751 18.9394C187.885 18.0926 186.436 17.6692 184.404 17.6692C183.275 17.6692 182.099 17.942 180.876 18.4877C179.653 19.0334 178.796 20.0025 178.307 21.395L171.364 19.1934C172.135 16.6719 173.584 14.6208 175.71 13.0401C177.837 11.4595 180.735 10.6691 184.404 10.6691C187.095 10.6691 189.485 11.0831 191.573 11.9111C193.662 12.7391 195.243 14.1692 196.315 16.2014C196.917 17.3305 197.275 18.4595 197.388 19.5886C197.501 20.7176 197.557 21.9784 197.557 23.3708V42H190.839V35.7338L191.799 37.0322C190.313 39.0833 188.704 40.5699 186.973 41.4919C185.26 42.3952 183.087 42.8468 180.452 42.8468ZM182.089 36.8064C183.501 36.8064 184.686 36.5618 185.646 36.0725C186.624 35.5645 187.396 34.9905 187.96 34.3508C188.544 33.711 188.939 33.1747 189.146 32.7419C189.541 31.9139 189.767 30.9542 189.823 29.8628C189.899 28.7526 189.936 27.8306 189.936 27.0967L192.194 27.6612C189.917 28.0375 188.073 28.3574 186.662 28.6209C185.251 28.8655 184.112 29.0913 183.247 29.2983C182.381 29.5053 181.619 29.7311 180.96 29.9757C180.208 30.2768 179.596 30.6061 179.126 30.9636C178.674 31.3023 178.335 31.6787 178.11 32.0927C177.903 32.5067 177.799 32.9677 177.799 33.4757C177.799 34.172 177.968 34.7741 178.307 35.2822C178.665 35.7715 179.163 36.1478 179.803 36.4113C180.443 36.6747 181.205 36.8064 182.089 36.8064ZM207.083 55.5485L212.954 39.4032L213.067 44.1452L199.8 11.5159H207.76L216.679 34.6048H214.873L223.736 11.5159H231.413L214.196 55.5485H207.083ZM230.298 49.621L230.749 46.4033C231.653 46.4785 232.386 46.328 232.951 45.9516C233.515 45.5941 233.901 45.0672 234.108 44.371C234.334 43.6936 234.381 42.9032 234.249 42H230.298V34.3225H237.975V42C237.975 44.7097 237.345 46.7608 236.084 48.1533C234.823 49.5457 232.894 50.035 230.298 49.621ZM257.203 42L269.622 1.35457H281.082L293.501 42H285.598L274.534 6.15298H276.001L265.106 42H257.203ZM264.654 33.5322V26.3628H286.106V33.5322H264.654ZM309.907 42.9032C307.518 42.9032 305.57 42.4987 304.065 41.6895C302.559 40.8804 301.383 39.8548 300.536 38.6129C299.708 37.3709 299.116 36.0819 298.758 34.7459C298.401 33.3911 298.184 32.1585 298.109 31.0483C298.034 29.9381 297.996 29.1289 297.996 28.6209V11.5159H305.786V25.9112C305.786 26.6074 305.824 27.5012 305.899 28.5927C305.974 29.6652 306.21 30.7472 306.605 31.8386C307 32.93 307.64 33.8427 308.524 34.5766C309.427 35.3104 310.698 35.6774 312.335 35.6774C312.993 35.6774 313.699 35.5739 314.452 35.3669C315.204 35.1599 315.91 34.7647 316.569 34.1814C317.227 33.5792 317.764 32.7042 318.178 31.5564C318.61 30.3897 318.827 28.8655 318.827 26.9838L323.23 29.0725C323.23 31.4811 322.741 33.7392 321.762 35.8467C320.784 37.9543 319.307 39.6572 317.331 40.9556C315.374 42.254 312.899 42.9032 309.907 42.9032ZM319.786 42V31.8951H318.827V11.5159H326.561V42H319.786ZM347.49 56.3953C345.759 56.3953 344.112 56.113 342.55 55.5485C340.988 55.0028 339.587 54.2313 338.345 53.2339C337.121 52.2554 336.124 51.1076 335.353 49.7904L342.466 46.3468C342.955 47.25 343.651 47.9369 344.554 48.4073C345.476 48.8777 346.474 49.113 347.546 49.113C348.694 49.113 349.776 48.9154 350.792 48.5202C351.808 48.1439 352.618 47.5699 353.22 46.7984C353.841 46.0457 354.132 45.1049 354.095 43.9758V35.1129H355.054V11.5159H361.772V44.0887C361.772 44.8414 361.735 45.5471 361.659 46.2057C361.603 46.8831 361.49 47.5511 361.321 48.2097C360.831 50.0726 359.919 51.6062 358.583 52.8106C357.265 54.0149 355.647 54.9087 353.728 55.492C351.808 56.0942 349.729 56.3953 347.49 56.3953ZM346.812 42.8468C344.009 42.8468 341.553 42.1411 339.445 40.7298C337.338 39.3185 335.691 37.3992 334.506 34.9717C333.339 32.5443 332.756 29.8064 332.756 26.758C332.756 23.6531 333.349 20.8964 334.534 18.4877C335.738 16.0603 337.423 14.1504 339.587 12.7579C341.751 11.3654 344.291 10.6691 347.208 10.6691C350.105 10.6691 352.542 11.3748 354.518 12.7861C356.494 14.1974 357.99 16.1168 359.006 18.5442C360.022 20.9716 360.53 23.7096 360.53 26.758C360.53 29.8064 360.013 32.5443 358.978 34.9717C357.962 37.3992 356.437 39.3185 354.405 40.7298C352.373 42.1411 349.842 42.8468 346.812 42.8468ZM348.054 36.0161C349.767 36.0161 351.131 35.6303 352.147 34.8588C353.182 34.0873 353.925 33.0053 354.377 31.6128C354.829 30.2204 355.054 28.6021 355.054 26.758C355.054 24.9139 354.829 23.2956 354.377 21.9031C353.925 20.5106 353.201 19.4286 352.204 18.6571C351.225 17.8856 349.936 17.4998 348.337 17.4998C346.624 17.4998 345.213 17.9232 344.103 18.77C343.011 19.598 342.202 20.7176 341.675 22.1289C341.148 23.5214 340.885 25.0644 340.885 26.758C340.885 28.4703 341.139 30.0322 341.647 31.4435C342.155 32.836 342.936 33.9462 343.99 34.7741C345.044 35.6021 346.398 36.0161 348.054 36.0161ZM379.849 41.9435V35.2822L396.898 20.1531C398.177 19.024 399.08 17.9609 399.607 16.9635C400.134 15.9662 400.398 15.0348 400.398 14.1692C400.398 12.9272 400.144 11.8264 399.636 10.8667C399.127 9.88823 398.412 9.12612 397.49 8.58042C396.568 8.0159 395.486 7.73364 394.244 7.73364C392.946 7.73364 391.798 8.03472 390.801 8.63687C389.822 9.22021 389.06 10.0011 388.514 10.9796C387.969 11.9393 387.715 12.9837 387.752 14.1127H379.849C379.849 11.3278 380.461 8.91913 381.684 6.88686C382.907 4.85459 384.61 3.28334 386.793 2.17312C388.976 1.0629 391.516 0.507788 394.414 0.507788C397.067 0.507788 399.438 1.09112 401.527 2.2578C403.634 3.40565 405.29 5.01454 406.494 7.08444C407.699 9.15435 408.301 11.5536 408.301 14.2821C408.301 16.2955 408.019 17.9703 407.454 19.3063C406.89 20.6235 406.052 21.8466 404.942 22.9757C403.832 24.0859 402.468 25.3467 400.849 26.758L389.841 36.4113L389.22 34.7177H408.301V41.9435H379.849ZM422.104 42V9.70946L414.483 14.395V5.92718L422.104 1.35457H429.951V42H422.104Z" fill="white"/>
</svg>
