<svg width="719" height="250" viewBox="0 0 719 250" fill="none" xmlns="http://www.w3.org/2000/svg">
<path d="M719 0H0V250H719V0Z" fill="#E3E3E3"/>
<path d="M719 159H0V250H719V159Z" fill="#BCBCBC"/>
<path d="M719 89H0V123H719V89Z" fill="#D1D1D1"/>
<path d="M719 154H0V128H719V154Z" fill="#E3E3E3"/>
<path d="M719 154H0V159H719V154Z" fill="#EFEFEF"/>
<path d="M139 95.9282V95.9332V117C139 120.312 136.307 123 132.983 123H0.5V128H719V123H386C382.686 123 380 120.314 380 117V95.9332V95.9282C379.961 92.0953 376.843 89 373 89H146.016C142.166 89 139.039 92.0941 139 95.9282Z" fill="#EFEFEF"/>
<path d="M400.5 107V112H402.5V107H407.5V105H402.5V100H400.5V105H395.5V107H400.5Z" fill="#747474"/>
<path d="M123.741 106.641L120.974 109.409L122.08 110.516L124.848 107.748L127.615 110.516L128.722 109.409L125.955 106.641L128.722 103.874L127.615 102.767L124.848 105.535L122.08 102.767L120.974 103.874L123.741 106.641Z" fill="#747474"/>
<path d="M710.319 159C709.959 159.823 709.247 161.39 708.548 162.921C707.55 165.107 706.576 167.22 706.686 166.987C704.994 170.598 703.502 174.299 702.215 178.073C698.112 190.417 684.562 196.043 663.252 197.428C656.775 197.847 651.086 197.872 641.129 197.682C636.074 197.568 634.982 197.555 633.039 197.555C625.533 197.555 613.761 199.676 593.111 204.311L589.364 205.162C561.222 211.537 555.012 212.795 549.221 212.795C546.046 212.795 542.299 213.252 537.244 214.179C535.238 214.547 533.117 214.966 530.082 215.589L522.208 217.227C507.375 220.237 496.428 221.685 484.451 221.685C456.014 221.685 439.641 229.748 429.967 250H428.58C438.496 228.827 455.359 220.415 484.451 220.415C496.339 220.415 507.197 218.979 521.954 215.982C523.066 215.758 524.178 215.532 525.289 215.304C526.804 214.992 528.316 214.677 529.828 214.357C532.876 213.722 534.997 213.29 537.016 212.922C542.134 211.982 545.957 211.525 549.221 211.525C554.859 211.525 561.146 210.255 589.085 203.917L592.831 203.079C613.583 198.418 625.394 196.285 633.039 196.285C634.995 196.285 636.087 196.298 641.167 196.412C651.073 196.602 656.75 196.577 663.176 196.158C684.016 194.812 697.122 189.351 701.021 177.667C702.318 173.85 703.823 170.106 705.529 166.453C705.473 166.569 705.703 166.068 706.076 165.256C706.844 163.586 708.215 160.603 708.927 159H710.319Z" fill="#CECECE"/>
<path d="M663.053 159C660.341 160.207 657.312 160.991 653.473 161.665L652 161.919C644.685 163.177 641.434 164.142 637.205 166.974C634.766 168.617 632.239 170.126 629.636 171.495C626.85 172.934 623.979 174.202 621.038 175.292C618.384 176.295 615.463 177.299 610.789 178.835C605.999 180.411 601.207 181.982 596.413 183.547C591.206 185.287 586.913 186.671 577.135 189.795C568.981 192.386 565.4 193.542 561.006 194.977C547.379 199.46 537.804 202.978 530.438 206.381C523.122 209.759 510.156 211.639 492.63 212.439C483.029 212.858 474.343 212.934 460.944 212.833L453.972 212.795C440.588 212.795 426.326 227.201 415.821 250H414.426C425.138 226.488 439.853 211.525 453.972 211.525L460.957 211.563C474.33 211.664 482.991 211.588 492.579 211.169C509.928 210.382 522.779 208.515 529.904 205.238C537.333 201.809 546.947 198.266 560.612 193.783C565.006 192.335 568.601 191.18 576.741 188.576C586.52 185.465 590.812 184.08 596.007 182.353C600.794 180.751 605.59 179.177 610.396 177.629C615.057 176.105 617.965 175.089 620.594 174.098C623.485 173.026 626.311 171.78 629.052 170.365C631.426 169.12 633.826 167.698 636.493 165.92C640.913 162.961 644.304 161.945 651.784 160.675L653.244 160.421C655.574 160.009 657.587 159.56 659.404 159H663.053Z" fill="#CECECE"/>
<path d="M604.228 159C604.089 159.235 603.987 159.408 603.943 159.481C601.722 163.164 600.07 164.98 597.683 165.767C596.489 166.174 595.054 166.821 592.768 167.977L589.682 169.539C588.374 170.212 587.308 170.733 586.253 171.241C578.087 175.178 571.356 177.235 564.46 177.235C557.209 177.235 551.71 179.889 546.655 184.753C545.182 186.163 541.321 190.507 540.775 191.027C537.55 194.126 533.244 196.412 526.996 198.774C525.218 199.434 519.401 201.479 519.059 201.593L516.442 202.584C515.312 203.041 514.182 203.384 513.014 203.613C505.965 205.061 498.866 202.927 490.179 197.999C489.259 197.47 487.267 196.279 485.578 195.269C484.308 194.51 483.208 193.852 482.864 193.656C480.261 192.183 477.632 191.713 471.32 191.243L469.123 191.052C463.053 190.545 459.369 189.605 456.144 187.281C449.794 182.696 447.546 177.426 448.969 171.622C449.971 167.537 452.69 163.373 456.951 159H458.75C454.126 163.551 451.201 167.827 450.2 171.927C448.905 177.197 450.937 181.959 456.88 186.239C459.878 188.398 463.37 189.287 469.225 189.795L471.422 189.96C477.924 190.468 480.667 190.951 483.486 192.564C483.835 192.757 484.91 193.4 486.156 194.144C487.857 195.161 489.878 196.368 490.802 196.882C499.26 201.682 506.092 203.74 512.76 202.368C513.852 202.152 514.918 201.835 515.96 201.416L516.491 201.205C517.199 200.927 517.911 200.658 518.627 200.4L519.293 200.165C520.943 199.586 525.114 198.122 526.552 197.58C532.647 195.294 536.812 193.059 539.886 190.113C540.076 189.932 540.737 189.209 541.569 188.3C542.957 186.782 544.821 184.744 545.767 183.839C551.049 178.759 556.841 175.965 564.46 175.965C571.128 175.965 577.693 173.946 585.707 170.098C586.748 169.59 587.803 169.082 589.11 168.409L589.506 168.208C590.227 167.839 591.706 167.082 592.196 166.847C594.533 165.666 596.007 164.993 597.276 164.561C599.272 163.912 600.729 162.307 602.743 159H604.228Z" fill="#CECECE"/>
<path d="M568.995 159C566.809 160.044 564.673 161.192 562.594 162.44C559.329 164.472 556.51 165.424 550.63 166.834C539.733 169.45 535.035 171.609 528.57 178.721C522.068 185.884 515.655 188.424 507.451 187.23C500.644 186.227 493.951 183.407 477.53 175.19C469.907 171.379 469.397 165.861 474.781 159H478.089C477.918 159.199 477.74 159.405 477.556 159.621C472.26 165.844 472.361 169.781 478.673 172.93C494.814 180.994 501.394 183.776 507.807 184.715C515.146 185.782 520.734 183.573 526.691 177.019C533.574 169.45 538.692 167.088 550.033 164.37C555.659 163.011 558.288 162.135 561.247 160.281C561.979 159.842 562.716 159.415 563.461 159H568.995Z" fill="#CECECE"/>
<path d="M534.215 159C522.246 167.389 516.428 168.993 510.601 166.542C509 165.834 507.463 164.992 506.003 164.027L503.476 162.402C502.536 161.795 501.588 161.203 500.631 160.624C499.758 160.1 499.093 159.56 498.628 159H500.476C500.716 159.182 500.987 159.363 501.291 159.544L504.161 161.322L506.688 162.948C507.368 163.378 507.971 163.747 508.522 164.068C509.486 164.629 510.297 165.042 511.096 165.374C516.18 167.521 521.4 166.219 531.979 159H534.215Z" fill="#CECECE"/>
<path d="M436.736 159C421.369 169.247 403.155 179.663 389.432 184.817C383.91 186.889 378.26 188.598 372.516 189.935C368.35 190.926 364.134 191.751 358.229 192.78C357.981 192.826 356.412 193.095 354.354 193.448C350.802 194.056 345.795 194.913 343.624 195.307C337.451 196.412 331.812 197.517 325.844 198.812C299.657 204.502 294.006 205.175 277.445 205.175C274.283 205.175 273.762 205.086 259.602 202.635C256.528 202.101 254.128 201.708 251.791 201.365C241.492 199.854 234.228 199.638 229.389 201.111C223.623 202.889 221.858 207.016 224.69 214.471C227.256 221.177 230.837 225.406 235.917 228.111C240.057 230.32 244.489 231.413 253.468 232.822C265.431 234.702 267.361 235.045 273.152 236.531C281.403 238.624 289.351 241.77 296.8 245.89C299.038 247.125 301.161 248.495 303.183 250H301.005C299.461 248.926 297.858 247.928 296.189 247.008C288.829 242.936 280.976 239.829 272.822 237.762C267.107 236.277 265.177 235.946 253.265 234.079C244.159 232.657 239.625 231.54 235.319 229.241C229.961 226.383 226.176 221.913 223.509 214.928C220.423 206.813 222.519 201.898 229.021 199.904C234.101 198.355 241.492 198.571 251.981 200.12C254.318 200.463 256.731 200.857 259.817 201.39L259.873 201.4C273.814 203.804 274.401 203.905 277.445 203.905C293.904 203.905 299.479 203.244 325.577 197.568C331.559 196.272 337.21 195.155 343.395 194.05C346.837 193.44 357.34 191.637 358 191.535C363.893 190.506 368.096 189.681 372.224 188.703C378.002 187.344 383.349 185.731 388.987 183.623C402.119 178.7 419.481 168.853 434.429 159H436.736Z" fill="#CECECE"/>
<path d="M425.078 159C416.388 163.869 407.426 167.485 398.232 169.603C388.76 171.749 379.195 173.473 369.569 174.771C365.543 175.33 361.492 175.851 356.488 176.448L344.563 177.87C329.921 179.661 322.402 181.109 317.081 183.534C305.296 188.881 281.077 191.205 254.585 191.205C252.846 191.205 251.029 191.052 249.124 190.76C245.797 190.24 242.774 189.452 237.517 187.852C228.195 185.046 225.287 184.36 221.477 184.601C216.524 184.893 213.057 187.509 210.721 193.351C208.358 199.269 207.646 202.914 206.479 212.375C205.082 223.78 202.834 227.768 193.817 230.536C190.842 231.397 187.951 232.528 185.181 233.914C184.782 234.123 184.415 234.326 184.053 234.536C183.688 234.748 183.328 234.968 182.946 235.21L181.244 236.302C178.831 237.75 176.342 238.194 169.497 238.194C167.475 238.194 164.688 238.021 162.291 237.872C159.873 237.722 157.854 237.597 157.419 237.699C157.146 237.761 156.94 237.797 156.741 237.856C155.811 238.134 155.039 238.947 148.352 245.624C147.045 246.93 145.447 248.344 143.412 250H141.422C143.517 248.341 145.532 246.584 147.463 244.735C154.292 237.905 155.155 236.993 156.198 236.678C156.463 236.598 156.739 236.557 157.127 236.467C157.725 236.33 160.161 236.475 162.886 236.637C165.198 236.774 167.719 236.924 169.497 236.924C176.126 236.924 178.425 236.518 180.597 235.21L182.26 234.143C182.692 233.864 183.103 233.616 183.522 233.375C183.867 233.177 184.219 232.984 184.597 232.784C187.432 231.366 190.391 230.21 193.436 229.33C201.868 226.739 203.875 223.183 205.222 212.223C206.402 202.66 207.126 198.927 209.539 192.869C212.066 186.582 215.939 183.649 221.4 183.331C225.427 183.077 228.386 183.776 237.872 186.633C241.615 187.868 245.444 188.828 249.328 189.503C251.169 189.783 252.922 189.935 254.585 189.935C280.887 189.935 305.004 187.624 316.561 182.366C322.047 179.877 329.629 178.429 344.411 176.613L356.349 175.19C361.327 174.581 365.378 174.073 369.392 173.514C379.755 172.066 388.949 170.428 397.953 168.358C406.302 166.436 414.47 163.253 422.422 159H425.078Z" fill="#CECECE"/>
<path d="M400.932 159C389.864 162.628 378.928 164.535 370.153 164.535C361.467 164.535 348.259 166.288 322.821 170.403L319.938 170.873C288.824 175.94 279.744 177.222 272.365 177.222C267.933 177.222 267.184 177.121 247.55 173.667L245.842 173.362C242.122 172.704 239.082 172.204 236.12 171.762C210.429 168.002 196.751 170.238 195.531 181.744C195.438 182.528 195.359 183.326 195.27 184.236L194.82 188.779C193.423 202.622 192.255 208.756 189.347 214.128C185.664 220.91 179.479 224.224 169.497 224.224C156.543 224.224 153.089 224.986 149.812 228.25C150.473 227.603 143.424 235.68 139.449 239.299C137.496 241.075 132.037 245.851 127.284 250H125.353C130.327 245.659 136.495 240.266 138.586 238.359C142.448 234.859 149.289 227.002 148.944 227.327C152.52 223.763 156.252 222.954 169.497 222.954C179.021 222.954 184.787 219.868 188.229 213.531C191.023 208.362 192.179 202.305 193.562 188.652L193.894 185.185L194.274 181.617C194.985 174.733 199.951 170.822 208.536 169.425C215.444 168.307 224.424 168.777 236.298 170.517C239.727 171.025 243.244 171.609 247.778 172.409C267.247 175.838 268.047 175.965 272.365 175.965C279.642 175.965 288.748 174.657 319.735 169.615L322.618 169.158C348.145 165.018 361.378 163.265 370.153 163.265C377.763 163.265 387.047 161.801 396.625 159H400.932Z" fill="#CECECE"/>
<path d="M269.779 159H281.281C271.056 160.341 265.381 160.726 258.396 160.726C253.004 160.726 248.396 160.224 242.857 159H250.265C252.901 159.311 255.536 159.456 258.396 159.456C262.253 159.456 265.712 159.336 269.779 159Z" fill="#CECECE"/>
<path d="M185.872 159C184.476 160.526 183.29 162.254 182.361 164.142C180.254 168.142 179.098 172.028 177.308 179.991C175.263 189.059 174.208 192.653 172.189 196.488C171.021 198.874 169.372 200.992 167.346 202.709C165.32 204.427 162.961 205.708 160.416 206.47C155.527 208.02 151.552 209.442 148.237 210.864C139.716 214.509 135.017 218.167 130.191 224.555C129.769 225.112 129.474 225.496 129.186 225.885C128.305 227.075 127.483 228.309 123.244 234.664C120.818 238.321 117.491 241.839 112.703 246.005C111.854 246.748 110.055 248.246 107.933 250H109.938C111.539 248.673 112.852 247.574 113.542 246.97C118.393 242.728 121.797 239.134 124.311 235.362C129.541 227.517 129.542 227.515 130.905 225.725L131.207 225.329C135.906 219.106 140.414 215.589 148.732 212.033C152.683 210.392 156.708 208.942 160.798 207.689C163.501 206.875 166.007 205.512 168.159 203.685C170.312 201.858 172.064 199.607 173.307 197.072C175.402 193.11 176.469 189.452 178.374 181.02C180.305 172.422 181.447 168.599 183.479 164.726C184.536 162.573 185.947 160.641 187.636 159H185.872Z" fill="#CECECE"/>
<path d="M166.389 159C164.979 162.231 163.643 166.049 162.309 170.492C161.785 172.24 160.386 177.154 159.652 179.729L159.223 181.236C157.114 188.411 155.527 192.386 153.47 194.786C150.65 198.063 147.323 199.384 138.217 201.517C128.312 203.841 124.082 206.165 121.835 212.363C118.43 221.729 104.046 237.934 90.167 250H88.2148C102.282 237.969 117.23 221.309 120.641 211.931C123.092 205.2 127.626 202.698 138.954 200.031C146.765 198.203 149.927 196.958 152.505 193.948C154.409 191.738 155.959 187.865 158.004 180.867C158.296 179.877 160.416 172.384 161.09 170.123C162.363 165.873 163.643 162.176 164.993 159H166.389Z" fill="#CECECE"/>
<path d="M152.452 159C152.195 160.156 151.936 161.395 151.666 162.732C150.117 170.466 149.215 173.832 147.222 178.137C145.126 182.62 142.18 185.515 138.242 187.306C135.283 188.665 132.718 189.211 126.406 190.087C114.926 191.7 110.188 194.012 106.582 202.254C101.87 213.023 96.7773 219.868 88.5234 227.349C86.7344 228.973 81.2988 233.51 76.4014 237.598C72.9531 240.476 69.7715 243.132 68.3174 244.392C66.3311 246.111 64.4629 247.977 62.6973 250H61.0293C63.042 247.614 65.1885 245.432 67.4922 243.439C69.0596 242.074 72.6162 239.104 76.3525 235.984C81.0283 232.079 85.9844 227.939 87.6719 226.421C95.7998 219.056 100.778 212.337 105.414 201.746C107.547 196.882 110.557 193.732 114.558 191.764C117.605 190.278 120.45 189.643 126.66 188.767C132.426 187.967 134.915 187.433 137.709 186.15C141.38 184.487 144.098 181.807 146.065 177.604C148.009 173.413 148.897 170.111 150.422 162.491C150.672 161.249 150.914 160.089 151.154 159H152.452Z" fill="#CECECE"/>
<path d="M133.165 159C133.175 159.17 133.183 159.312 133.188 159.417C133.315 162.91 133.023 164.866 131.816 166.669C129.695 169.844 128.934 170.225 107.75 179.039C100.791 181.947 96.333 185.338 93.5264 189.503C91.3555 192.691 90.3896 195.51 88.9043 201.822C87.8496 206.267 87.3672 208.07 86.4404 210.496C83.6719 217.773 78.7568 223.437 69.8037 228.504C62.623 232.557 56.2432 239.687 50.2441 250H47.3145C53.7344 238.625 60.627 230.755 68.5459 226.282C77.0039 221.507 81.5 216.3 84.0654 209.582C85.0566 206.858 85.8457 204.065 86.4277 201.225C87.9893 194.621 89.0312 191.586 91.4189 188.068C94.5303 183.471 99.3809 179.775 106.785 176.689C126.825 168.333 128.032 167.749 129.708 165.247C130.534 164.002 130.763 162.516 130.648 159.519C130.644 159.395 130.634 159.216 130.622 159H133.165Z" fill="#CECECE"/>
<path d="M102.634 159C102.106 159.25 101.555 159.503 100.981 159.76C101.108 159.697 97.21 161.424 96.1045 161.932C84.9541 167.088 79.9629 172.46 79.9629 182.95C79.9629 198.85 73.791 207.359 57.9414 218.459L52.1504 222.447C49.7383 224.097 47.96 225.367 46.2197 226.637C45.7959 226.951 45.3799 227.261 44.9717 227.569C44.2559 228.109 43.5635 228.643 42.8926 229.177C37.1113 233.715 33.0352 239.947 29.3438 250H27.9844C31.7979 239.467 36.0195 232.952 42.1055 228.174C43.1719 227.323 44.29 226.485 45.4707 225.621C47.2236 224.326 49.0264 223.069 51.4395 221.405L57.2051 217.417C72.7627 206.534 78.6934 198.355 78.6934 182.95C78.6934 171.851 84.0273 166.11 95.5713 160.789C96.2256 160.484 97.8379 159.765 99.0342 159.232C99.2197 159.15 99.3955 159.072 99.5557 159H102.634Z" fill="#CECECE"/>
<path d="M70.0234 159C69.5264 162.056 68.9775 165.455 68.5518 168.096C68.2051 170.246 67.9395 171.894 67.8477 172.448C66.6797 179.509 65.7266 184.36 64.6982 188.195C62.0947 197.948 56.0371 204.616 43.9336 213.48L36.9619 218.535C32.7705 221.646 29.9639 224.047 27.7295 226.549C26.8662 227.525 23.7773 231.626 20.1855 236.395C16.6748 241.056 12.6836 246.356 9.81934 250H8.19336C11.0312 246.433 15.2881 240.781 19.0391 235.801C22.7031 230.936 25.8848 226.711 26.7891 225.698C29.0752 223.107 31.9453 220.668 36.2129 217.506C37.0508 216.885 39.1982 215.33 40.9072 214.092C41.9941 213.305 42.9033 212.646 43.1846 212.439C55.0713 203.74 60.9648 197.25 63.4785 187.852C64.4951 184.068 65.4346 179.242 66.6035 172.231C66.7969 171.023 67.8428 164.504 68.7363 159H70.0234Z" fill="#CECECE"/>
<path d="M54.5928 159C50.9678 174.136 47.7598 184.037 44.3154 189.63C34.8613 204.995 31.0215 209.338 0 239.16V237.393C30.1504 208.419 33.9346 204.063 43.2227 188.97C46.5674 183.556 49.7227 173.833 53.2832 159H54.5928Z" fill="#CECECE"/>
<path d="M32.6279 159C29.2344 167.061 24.2256 174.037 13.6836 186.798L10.2793 190.913C5.84766 196.317 2.56348 200.606 0 204.515V200.029C2.25098 196.87 4.96191 193.403 8.31152 189.313L11.7148 185.173C21.668 173.148 26.5859 166.375 29.8545 159H32.6279Z" fill="#CECECE"/>
<path d="M6.29297 159C4.20215 163.646 2.10449 168.288 0 172.928V169.823C1.62891 166.218 3.25488 162.61 4.87598 159H6.29297Z" fill="#CECECE"/>
<path d="M465.547 250C467.34 248.608 469.202 247.35 471.13 246.22C479.066 241.572 487.551 239.464 494.624 239.464C503.526 239.464 510.689 239.312 520.239 238.74C534.081 237.983 547.857 236.303 561.476 233.711C567.825 232.467 573.858 231.006 579.535 229.33C596.591 224.275 605.417 222.954 621.368 221.989L624.213 221.812C631.527 221.342 636.658 220.668 643.072 219.157C649.815 217.57 656.775 217.443 671.773 218.268C683.254 218.903 688.08 219.005 693.63 218.395C700.882 217.608 706.253 215.525 710.076 211.715C712.754 209.033 715.762 205.333 719 200.841V202.959C716.108 206.893 713.398 210.161 710.952 212.604C706.901 216.668 701.275 218.827 693.757 219.665C688.105 220.275 683.241 220.173 669.398 219.411C656.813 218.713 649.942 218.852 643.339 220.402C637.082 221.866 630.706 222.763 624.289 223.082L621.432 223.259C605.569 224.212 596.832 225.52 579.878 230.549C574.163 232.238 568.105 233.711 561.717 234.969C548.044 237.568 534.213 239.253 520.315 240.01C510.715 240.582 503.539 240.734 494.611 240.734C487.754 240.734 479.499 242.779 471.752 247.312C470.347 248.137 468.976 249.032 467.642 250H465.547Z" fill="#CECECE"/>
<path d="M719 242.538C711.064 245.448 703.668 246.616 698.71 245.128C695.367 244.059 691.893 243.46 688.385 243.35C685.045 243.287 681.577 243.731 676.815 244.773C672.847 245.667 668.896 246.64 664.967 247.694L660.014 248.951C658.581 249.309 657.082 249.658 655.529 250H641.924C648.214 248.963 654.251 247.773 659.404 246.487L664.331 245.243L668.738 244.112C672.04 243.274 674.237 242.741 676.27 242.296C681.222 241.204 684.854 240.734 688.436 240.81C691.915 240.886 695.382 241.471 699.446 242.69C703.642 243.95 710.897 242.784 719 239.738V242.538Z" fill="#CECECE"/>
<path d="M719 230.828C717.865 231.229 716.711 231.588 715.537 231.908C705.529 234.638 695.688 234.372 683.051 232.2L676.701 231.057C674.669 230.727 673.349 230.562 672.396 230.562C668.332 230.562 661.829 232.111 647.326 236.251C631.642 240.734 626.626 241.991 622.866 241.991L619.869 241.966C609.786 241.839 603.55 242.182 596.413 243.769C590.594 245.069 585.466 247.103 581.138 250H578.97C579.086 249.918 579.202 249.835 579.319 249.751C584.018 246.322 589.656 243.985 596.134 242.55C603.385 240.937 609.71 240.594 619.882 240.709L622.866 240.734C626.448 240.734 631.502 239.464 647.885 234.778C661.639 230.866 668.142 229.304 672.396 229.304C673.438 229.304 674.809 229.469 676.904 229.825L683.267 230.968C695.738 233.102 705.415 233.368 715.207 230.701C716.495 230.349 717.76 229.948 719 229.496V230.828Z" fill="#CECECE"/>
<path d="M445.702 250H444.166C446.98 245.772 449.516 242.901 452.334 240.861C465.224 231.463 488.782 226.764 516.201 226.764C525.751 226.764 537.206 225.19 551.138 222.218C557.498 220.844 563.832 219.353 570.137 217.748C568.486 218.167 589.872 212.693 594.8 211.537C612.771 207.308 646.958 205.175 676.219 205.175C694.947 205.175 707.353 196.716 719 171.249V174.229C707.453 198.243 694.87 206.445 676.219 206.445C647.06 206.445 612.936 208.578 595.079 212.782C590.178 213.925 568.804 219.386 570.441 218.979C564.124 220.59 557.777 222.084 551.405 223.462C537.384 226.447 525.865 228.034 516.201 228.034C489.023 228.034 465.707 232.695 453.083 241.877C450.567 243.714 448.251 246.281 445.702 250Z" fill="#CECECE"/>
<path d="M261.483 250C260.232 249.503 258.908 248.984 257.442 248.417L250.547 245.776C242.104 242.496 230.217 244.142 214.197 250H210.603C228.512 243.081 241.649 240.941 251.004 244.582L257.9 247.249C260.547 248.262 262.745 249.128 264.882 250H261.483Z" fill="#CECECE"/>
<path d="M389.959 250C390.544 249.037 391.092 248.044 391.604 247.021C393.277 243.664 395.268 240.474 397.547 237.496C398.617 236.094 399.731 234.726 400.887 233.394L404.188 229.622C408.761 224.351 411.237 220.605 413.257 215.144C418.642 200.514 418.031 195.967 408.888 190.735C404.608 188.297 398.842 189.071 391.185 192.513C385.647 194.977 381.735 197.288 369.214 205.086L365.671 207.258C363.029 208.908 360.578 209.95 358.051 210.559C354.151 211.525 351.904 211.512 341.871 210.89C325.361 209.874 312.28 210.509 291.161 214.725C278.232 217.303 272.353 219.5 271.502 222.447C270.714 225.152 273.355 227.107 279.654 229.876C280.448 230.224 282.962 231.239 285.93 232.438C290.321 234.211 295.707 236.386 297.98 237.394C307.305 241.487 313.996 245.507 318.16 250H321.496C317.184 244.445 309.75 239.797 299.009 235.07C296.777 234.082 291.662 232.015 287.363 230.278C284.2 229 281.479 227.9 280.671 227.539C275.819 225.418 273.736 223.869 273.939 223.145C274.104 222.561 275.388 221.685 277.966 220.719C280.938 219.615 285.446 218.459 291.669 217.227C312.547 213.049 325.412 212.426 341.719 213.417C352.031 214.052 354.393 214.065 358.66 213.036C361.615 212.284 364.432 211.067 367.004 209.429L370.547 207.232C382.955 199.523 386.841 197.237 392.226 194.824C399.211 191.688 404.239 191.014 407.618 192.945C415.44 197.415 415.886 200.666 410.869 214.255C408.977 219.386 406.665 222.891 402.271 227.958L398.97 231.73C397.774 233.104 396.622 234.514 395.515 235.959C393.178 239.032 391.172 242.207 389.343 245.89C388.626 247.322 387.831 248.69 386.959 250H389.959Z" fill="#CECECE"/>
<path fill-rule="evenodd" clip-rule="evenodd" d="M360.146 245.801C378.903 241.382 392.353 230.016 402.437 213.76C406.259 207.626 406.614 203.829 403.439 202.381C400.874 201.2 396.099 201.809 389.025 203.93C385.152 205.086 380.872 207.588 375.284 211.652C373.9 212.642 372.503 213.709 370.636 215.131C358.216 224.631 354.939 226.764 351.104 226.764C346.393 226.764 342.785 232.619 343.484 238.27C344.31 244.798 350.215 248.125 360.146 245.801ZM402.906 203.536C405.104 204.54 404.824 207.511 401.369 213.099C391.426 229.088 378.243 240.239 359.854 244.557C350.621 246.729 345.465 243.833 344.754 238.118C344.119 233.14 347.269 228.034 351.104 228.034C355.371 228.034 358.597 225.952 371.398 216.147C373.265 214.725 374.662 213.671 376.033 212.667C381.507 208.693 385.698 206.254 389.381 205.149C396.15 203.117 400.734 202.533 402.906 203.536Z" fill="#CECECE"/>
<path d="M58.8682 21.5H62.0059V0H58.8682V21.5Z" fill="#C4C4C4" fill-opacity="0.22"/>
<path d="M23.9434 0H27.5674L38.2646 18.6023L35.5469 20.1772L23.9434 0Z" fill="#C4C4C4" fill-opacity="0.22"/>
<path d="M0 8.55273V4.91553L12.3086 12.05L10.7393 14.7778L0 8.55273Z" fill="#C4C4C4" fill-opacity="0.22"/>
<path d="M0 44.4226V38.1216L6.88965 50.1023L4.17188 51.6772L0 44.4226Z" fill="#C4C4C4" fill-opacity="0.22"/>
<path d="M5.96777 89H2.34473L4.17188 85.8228L6.88965 87.3977L5.96777 89Z" fill="#C4C4C4" fill-opacity="0.22"/>
<path d="M118.529 89H114.906L113.984 87.3977L116.702 85.8228L118.529 89Z" fill="#C4C4C4" fill-opacity="0.22"/>
<path d="M156.131 89H152.993V84.5H156.131V89Z" fill="#C4C4C4" fill-opacity="0.22"/>
<path d="M194.218 89H190.595L192.422 85.8228L195.14 87.3977L194.218 89Z" fill="#C4C4C4" fill-opacity="0.22"/>
<path d="M306.779 89H303.156L302.234 87.3977L304.952 85.8228L306.779 89Z" fill="#C4C4C4" fill-opacity="0.22"/>
<path d="M344.381 89H341.243V84.5H344.381V89Z" fill="#C4C4C4" fill-opacity="0.22"/>
<path d="M382.468 89H378.845L380.672 85.8228L383.39 87.3977L382.468 89Z" fill="#C4C4C4" fill-opacity="0.22"/>
<path d="M495.029 89H491.406L490.484 87.3977L493.202 85.8228L495.029 89Z" fill="#C4C4C4" fill-opacity="0.22"/>
<path d="M532.631 89H529.493V84.5H532.631V89Z" fill="#C4C4C4" fill-opacity="0.22"/>
<path d="M570.718 89H567.095L568.922 85.8228L571.64 87.3977L570.718 89Z" fill="#C4C4C4" fill-opacity="0.22"/>
<path d="M683.279 89H679.656L678.734 87.3977L681.452 85.8228L683.279 89Z" fill="#C4C4C4" fill-opacity="0.22"/>
<path d="M719 84.5V89H717.743V84.5H719Z" fill="#C4C4C4" fill-opacity="0.22"/>
<path d="M719 65.0569V71.3579L710.109 55.8977L712.827 54.3228L719 65.0569Z" fill="#C4C4C4" fill-opacity="0.22"/>
<path d="M719 34.8938V38.531L705.193 30.5278L706.762 27.8L719 34.8938Z" fill="#C4C4C4" fill-opacity="0.22"/>
<path d="M719 4.17505V7.32495H703.625V4.17505H719Z" fill="#C4C4C4" fill-opacity="0.22"/>
<path d="M694.72 0H700.993L675.136 14.9888L673.567 12.261L694.72 0Z" fill="#C4C4C4" fill-opacity="0.22"/>
<path d="M658.057 0H661.681L650.077 20.1772L647.359 18.6023L658.057 0Z" fill="#C4C4C4" fill-opacity="0.22"/>
<path d="M623.618 0H626.756V21.5H623.618V0Z" fill="#C4C4C4" fill-opacity="0.22"/>
<path d="M588.693 0H592.317L603.015 18.6023L600.297 20.1772L588.693 0Z" fill="#C4C4C4" fill-opacity="0.22"/>
<path d="M549.995 0H556.27L577.059 12.05L575.489 14.7778L549.995 0Z" fill="#C4C4C4" fill-opacity="0.22"/>
<path d="M506.47 0H512.743L486.886 14.9888L485.317 12.261L506.47 0Z" fill="#C4C4C4" fill-opacity="0.22"/>
<path d="M469.807 0H473.431L461.827 20.1772L459.109 18.6023L469.807 0Z" fill="#C4C4C4" fill-opacity="0.22"/>
<path d="M435.368 0H438.506V21.5H435.368V0Z" fill="#C4C4C4" fill-opacity="0.22"/>
<path d="M400.443 0H404.067L414.765 18.6023L412.047 20.1772L400.443 0Z" fill="#C4C4C4" fill-opacity="0.22"/>
<path d="M361.745 0H368.02L388.809 12.05L387.239 14.7778L361.745 0Z" fill="#C4C4C4" fill-opacity="0.22"/>
<path d="M318.22 0H324.493L298.636 14.9888L297.067 12.261L318.22 0Z" fill="#C4C4C4" fill-opacity="0.22"/>
<path d="M281.557 0H285.181L273.577 20.1772L270.859 18.6023L281.557 0Z" fill="#C4C4C4" fill-opacity="0.22"/>
<path d="M247.118 0H250.256V21.5H247.118V0Z" fill="#C4C4C4" fill-opacity="0.22"/>
<path d="M212.193 0H215.817L226.515 18.6023L223.797 20.1772L212.193 0Z" fill="#C4C4C4" fill-opacity="0.22"/>
<path d="M173.495 0H179.77L200.559 12.05L198.989 14.7778L173.495 0Z" fill="#C4C4C4" fill-opacity="0.22"/>
<path d="M129.97 0H136.243L110.386 14.9888L108.817 12.261L129.97 0Z" fill="#C4C4C4" fill-opacity="0.22"/>
<path d="M93.3066 0H96.9307L85.3271 20.1772L82.6094 18.6023L93.3066 0Z" fill="#C4C4C4" fill-opacity="0.22"/>
<path d="M170.25 7.32495V4.17505H138.875V7.32495H170.25Z" fill="#C4C4C4" fill-opacity="0.22"/>
<path d="M66.9219 22.8228L69.6396 24.3977L53.9521 51.6772L51.2344 50.1023L66.9219 22.8228Z" fill="#C4C4C4" fill-opacity="0.22"/>
<path d="M106.182 30.7388L104.613 28.011L77.4424 43.761L79.0107 46.4888L106.182 30.7388Z" fill="#C4C4C4" fill-opacity="0.22"/>
<path d="M138.875 35.675V38.825H107.5V35.675H138.875Z" fill="#C4C4C4" fill-opacity="0.22"/>
<path d="M167.614 46.2778L169.184 43.55L142.012 27.8L140.443 30.5278L167.614 46.2778Z" fill="#C4C4C4" fill-opacity="0.22"/>
<path d="M30.6309 53H27.4932V21.5H30.6309V53Z" fill="#C4C4C4" fill-opacity="0.22"/>
<path d="M35.5469 54.3228L38.2646 55.8977L22.5771 83.1772L19.8594 81.6023L35.5469 54.3228Z" fill="#C4C4C4" fill-opacity="0.22"/>
<path d="M73.2383 59.511L74.8066 62.2388L47.6357 77.9888L46.0674 75.261L73.2383 59.511Z" fill="#C4C4C4" fill-opacity="0.22"/>
<path d="M107.5 70.325V67.175H76.125V70.325H107.5Z" fill="#C4C4C4" fill-opacity="0.22"/>
<path d="M137.809 75.05L136.239 77.7778L109.068 62.0278L110.637 59.3L137.809 75.05Z" fill="#C4C4C4" fill-opacity="0.22"/>
<path d="M161.047 83.1772L163.765 81.6023L148.077 54.3228L145.359 55.8977L161.047 83.1772Z" fill="#C4C4C4" fill-opacity="0.22"/>
<path d="M184.368 53H187.506V84.5H184.368V53Z" fill="#C4C4C4" fill-opacity="0.22"/>
<path d="M226.515 55.8977L223.797 54.3228L208.109 81.6023L210.827 83.1772L226.515 55.8977Z" fill="#C4C4C4" fill-opacity="0.22"/>
<path d="M263.057 62.2388L261.488 59.511L234.317 75.261L235.886 77.9888L263.057 62.2388Z" fill="#C4C4C4" fill-opacity="0.22"/>
<path d="M295.75 67.175V70.325H264.375V67.175H295.75Z" fill="#C4C4C4" fill-opacity="0.22"/>
<path d="M324.489 77.7778L326.059 75.05L298.887 59.3L297.318 62.0278L324.489 77.7778Z" fill="#C4C4C4" fill-opacity="0.22"/>
<path d="M352.015 81.6023L349.297 83.1772L333.609 55.8977L336.327 54.3228L352.015 81.6023Z" fill="#C4C4C4" fill-opacity="0.22"/>
<path d="M195.14 50.1023L192.422 51.6772L176.734 24.3977L179.452 22.8228L195.14 50.1023Z" fill="#C4C4C4" fill-opacity="0.22"/>
<path d="M358.5 7.32495V4.17505H327.125V7.32495H358.5Z" fill="#C4C4C4" fill-opacity="0.22"/>
<path d="M255.172 22.8228L257.89 24.3977L242.202 51.6772L239.484 50.1023L255.172 22.8228Z" fill="#C4C4C4" fill-opacity="0.22"/>
<path d="M294.432 30.7388L292.863 28.011L265.692 43.761L267.261 46.4888L294.432 30.7388Z" fill="#C4C4C4" fill-opacity="0.22"/>
<path d="M327.125 35.675V38.825H295.75V35.675H327.125Z" fill="#C4C4C4" fill-opacity="0.22"/>
<path d="M355.864 46.2778L357.434 43.55L330.262 27.8L328.693 30.5278L355.864 46.2778Z" fill="#C4C4C4" fill-opacity="0.22"/>
<path d="M218.881 53H215.743V21.5H218.881V53Z" fill="#C4C4C4" fill-opacity="0.22"/>
<path d="M372.618 53H375.756V84.5H372.618V53Z" fill="#C4C4C4" fill-opacity="0.22"/>
<path d="M414.765 55.8977L412.047 54.3228L396.359 81.6023L399.077 83.1772L414.765 55.8977Z" fill="#C4C4C4" fill-opacity="0.22"/>
<path d="M451.307 62.2388L449.738 59.511L422.567 75.261L424.136 77.9888L451.307 62.2388Z" fill="#C4C4C4" fill-opacity="0.22"/>
<path d="M484 67.175V70.325H452.625V67.175H484Z" fill="#C4C4C4" fill-opacity="0.22"/>
<path d="M512.739 77.7778L514.309 75.05L487.137 59.3L485.568 62.0278L512.739 77.7778Z" fill="#C4C4C4" fill-opacity="0.22"/>
<path d="M540.265 81.6023L537.547 83.1772L521.859 55.8977L524.577 54.3228L540.265 81.6023Z" fill="#C4C4C4" fill-opacity="0.22"/>
<path d="M564.006 53H560.868V84.5H564.006V53Z" fill="#C4C4C4" fill-opacity="0.22"/>
<path d="M600.297 54.3228L603.015 55.8977L587.327 83.1772L584.609 81.6023L600.297 54.3228Z" fill="#C4C4C4" fill-opacity="0.22"/>
<path d="M637.988 59.511L639.557 62.2388L612.386 77.9888L610.817 75.261L637.988 59.511Z" fill="#C4C4C4" fill-opacity="0.22"/>
<path d="M672.25 70.325V67.175H640.875V70.325H672.25Z" fill="#C4C4C4" fill-opacity="0.22"/>
<path d="M702.559 75.05L700.989 77.7778L673.818 62.0278L675.387 59.3L702.559 75.05Z" fill="#C4C4C4" fill-opacity="0.22"/>
<path d="M380.672 51.6772L383.39 50.1023L367.702 22.8228L364.984 24.3977L380.672 51.6772Z" fill="#C4C4C4" fill-opacity="0.22"/>
<path d="M546.75 4.17505V7.32495H515.375V4.17505H546.75Z" fill="#C4C4C4" fill-opacity="0.22"/>
<path d="M446.14 24.3977L443.422 22.8228L427.734 50.1023L430.452 51.6772L446.14 24.3977Z" fill="#C4C4C4" fill-opacity="0.22"/>
<path d="M481.113 28.011L482.682 30.7388L455.511 46.4888L453.942 43.761L481.113 28.011Z" fill="#C4C4C4" fill-opacity="0.22"/>
<path d="M515.375 38.825V35.675H484V38.825H515.375Z" fill="#C4C4C4" fill-opacity="0.22"/>
<path d="M545.684 43.55L544.114 46.2778L516.943 30.5278L518.512 27.8L545.684 43.55Z" fill="#C4C4C4" fill-opacity="0.22"/>
<path d="M403.993 53H407.131V21.5H403.993V53Z" fill="#C4C4C4" fill-opacity="0.22"/>
<path d="M571.64 50.1023L568.922 51.6772L553.234 24.3977L555.952 22.8228L571.64 50.1023Z" fill="#C4C4C4" fill-opacity="0.22"/>
<path d="M631.672 22.8228L634.39 24.3977L618.702 51.6772L615.984 50.1023L631.672 22.8228Z" fill="#C4C4C4" fill-opacity="0.22"/>
<path d="M670.932 30.7388L669.363 28.011L642.192 43.761L643.761 46.4888L670.932 30.7388Z" fill="#C4C4C4" fill-opacity="0.22"/>
<path d="M703.625 35.675V38.825H672.25V35.675H703.625Z" fill="#C4C4C4" fill-opacity="0.22"/>
<path d="M595.381 53H592.243V21.5H595.381V53Z" fill="#C4C4C4" fill-opacity="0.22"/>
</svg>
