<svg width="520" height="250" viewBox="0 0 520 250" fill="none" xmlns="http://www.w3.org/2000/svg">
<g clip-path="url(#clip0)">
<rect width="520" height="250" fill="#EFEFEF"/>
<rect y="159" width="520" height="91" fill="#BCBCBC"/>
<rect y="89" width="520" height="34" fill="#D1D1D1"/>
<rect width="520" height="26" transform="matrix(1 0 0 -1 0 154)" fill="#E3E3E3"/>
<path d="M0 159.5H-0.5V159V155V154.5H0H520H520.5V155V159V159.5H520H0Z" stroke="#848484"/>
<path d="M138.5 95.4282V95.4332V116.5C138.5 119.812 135.807 122.5 132.483 122.5H0H-0.5V123V127V127.5H0H520H520.5V127V123V122.5H520H385.5C382.186 122.5 379.5 119.814 379.5 116.5L379.5 95.4332L379.5 95.4282C379.461 91.5953 376.343 88.5 372.5 88.5H145.516C141.666 88.5 138.539 91.5941 138.5 95.4282Z" fill="#EFEFEF" stroke="#848484"/>
<path d="M124.364 107.071L127.192 109.899L127.899 109.192L125.071 106.364L127.899 103.536L127.192 102.828L124.364 105.657L121.535 102.828L120.828 103.535L123.657 106.364L120.828 109.192L121.535 109.899L124.364 107.071Z" fill="#747474"/>
<path d="M400 107V112H401V107H406V106H401V101H400V106H395V107H400Z" fill="#747474"/>
<line x1="2.09443e-05" y1="88.5" x2="520" y2="88.5218" stroke="#848484"/>
</g>
<defs>
<clipPath id="clip0">
<rect width="520" height="250" fill="white"/>
</clipPath>
</defs>
</svg>
